<svg width="24" height="14" viewBox="0 0 24 14" fill="none" xmlns="http://www.w3.org/2000/svg">
<path d="M13.5 12C13.5 11.1716 12.8284 10.5 12 10.5C11.1716 10.5 10.5 11.1716 10.5 12L13.5 12ZM10.9393 13.0608C11.5251 13.6465 12.4749 13.6465 13.0607 13.0608L22.6066 3.51482C23.1924 2.92903 23.1924 1.97928 22.6066 1.3935C22.0208 0.807712 21.0711 0.807712 20.4853 1.3935L12 9.87878L3.51472 1.3935C2.92893 0.807711 1.97919 0.807711 1.3934 1.3935C0.807612 1.97928 0.807612 2.92903 1.3934 3.51482L10.9393 13.0608ZM12 12L10.5 12L10.5 12.0001L12 12.0001L13.5 12.0001L13.5 12L12 12Z" fill="#191919"/>
</svg>
