<svg width="252" height="76" viewBox="0 0 252 76" fill="none" xmlns="http://www.w3.org/2000/svg">
<path d="M43.5098 65.7383C46.7799 66.0444 50.4281 66.24 54.4073 66.3242L54.1348 66.3652L55.7744 66.6484C51.5496 66.5871 47.6741 66.4038 44.2022 66.1006L44.5908 66.1201L43.5098 65.7383ZM78.2129 65.8506L79.3291 65.9531C74.8569 66.2461 70.5741 66.4499 66.5147 66.5635L68.1221 66.3252L67.4912 66.2354C71.1469 66.121 74.9789 65.9342 78.9629 65.6768L78.2129 65.8506ZM207.614 23.5596C212.66 24.7707 215.708 26.4896 216.275 28.7109L216.322 28.9268C218.003 38.2285 176.531 52.5368 123.693 60.8848L121.223 61.2695C110.549 62.907 100.253 64.1668 90.6192 65.0576L92.1465 64.7051L91.5635 64.668C101.652 63.7133 112.451 62.3575 123.64 60.5898C150.047 56.4177 173.607 50.7564 190.349 44.9805C198.721 42.0919 205.374 39.1797 209.824 36.417C212.05 35.0349 213.71 33.6989 214.758 32.4355C215.807 31.1703 216.214 30.0145 216.026 28.9736C215.838 27.9328 215.048 26.9664 213.612 26.0938C212.179 25.2224 210.142 24.4712 207.554 23.8496C207.27 23.7814 206.979 23.7154 206.683 23.6504L207.614 23.5596ZM169.643 21.8809L170.126 21.9854C154.859 22.64 136.831 24.4665 117.661 27.4951C91.2542 31.6672 67.6946 37.3276 50.9532 43.1035C42.5802 45.9923 35.9265 48.9061 31.4766 51.6689C29.2507 53.051 27.5918 54.3861 26.544 55.6494C25.4948 56.9145 25.0885 58.0695 25.2764 59.1104C25.4645 60.1514 26.2537 61.1185 27.6895 61.9912C28.5517 62.5153 29.6328 62.9935 30.9199 63.4287H30.9024L33.7901 64.5488C28.5194 63.2976 25.4016 61.4987 24.9785 59.1572L24.9473 58.9395C23.9461 49.6335 65.182 35.4831 117.607 27.2002L120.078 26.8154C139.086 23.8994 156.895 22.1758 171.901 21.6152L169.643 21.8809Z" fill="white"/>
<path d="M29.5119 44.0589H31.2083V42.4999H29.5119V44.0589ZM28.9269 41.9255H31.8225V44.6333H28.9269V41.9255ZM33.1972 47.2317C33.519 47.2317 33.8407 47.1223 34.1624 46.8761C34.4257 46.5753 34.5719 46.2744 34.5719 45.9462V40.5853C34.5719 40.3118 34.4257 40.0109 34.1624 39.6827C33.8699 39.4365 33.5482 39.2997 33.1972 39.2997H27.4937C27.1135 39.2997 26.7918 39.4365 26.5285 39.6827C26.236 39.9562 26.119 40.257 26.119 40.5853V45.9462C26.119 46.2744 26.236 46.5753 26.5285 46.8761C26.8503 47.1223 27.172 47.2317 27.4937 47.2317H33.1972ZM38.9007 36.6193C39.2517 36.6193 39.5734 36.5099 39.8659 36.2364C40.1292 35.9628 40.2754 35.662 40.2754 35.279C40.2754 35.0055 40.1292 34.7047 39.8659 34.3764C39.5149 34.1303 39.1932 33.9935 38.9007 33.9935H21.8487C21.4392 33.9935 21.1175 34.1303 20.8543 34.3764C20.5618 34.65 20.4448 34.9508 20.4448 35.3064V43.3204C20.4448 43.676 20.5618 43.9769 20.8543 44.223C21.1175 44.4966 21.4392 44.606 21.8487 44.606C22.1412 44.606 22.4629 44.4966 22.8139 44.223C23.0479 44.0042 23.1942 43.7034 23.1942 43.3204V36.6193H38.9007ZM21.8195 49.9122C21.4392 49.9122 21.1175 50.0489 20.8543 50.3225C20.5618 50.596 20.4448 50.8968 20.4448 51.2524C20.4448 51.5533 20.5618 51.8542 20.8543 52.155C21.1175 52.4285 21.4392 52.5379 21.8195 52.5379H38.8715C39.2517 52.5379 39.5734 52.4285 39.8659 52.155C40.1292 51.9089 40.2754 51.608 40.2754 51.2251V43.2384C40.2754 42.9102 40.1292 42.6093 39.8659 42.3358C39.5734 42.0896 39.2517 41.9529 38.8715 41.9529C38.4912 41.9529 38.1695 42.0896 37.9063 42.3358C37.6138 42.6093 37.4675 42.9102 37.4675 43.2384V49.9122H21.8195ZM27.4937 47.8061C27.2012 47.8061 26.9672 47.7788 26.7625 47.6693C26.5285 47.5873 26.3238 47.4779 26.119 47.3138C25.7096 46.9309 25.5048 46.4932 25.5048 45.9462V40.5853C25.5048 40.0656 25.6803 39.628 26.0605 39.2724C26.4408 38.9168 26.9088 38.7254 27.4937 38.7254H33.1972C33.7237 38.7254 34.1917 38.9168 34.6597 39.2997C34.8059 39.5186 34.9229 39.71 35.0399 39.9015C35.1276 40.1203 35.1861 40.3391 35.1861 40.5853V45.9462C35.1861 46.4385 34.9814 46.9035 34.6304 47.2864C34.1917 47.642 33.7237 47.8061 33.1972 47.8061H27.4937ZM23.8084 37.1663V43.3204C23.8084 43.8675 23.6036 44.3324 23.1942 44.6607C22.8432 45.0162 22.3752 45.1803 21.8487 45.1803C21.2638 45.1803 20.7958 45.0162 20.4155 44.6607C20.0061 44.3051 19.8306 43.8675 19.8306 43.3204V35.3064C19.8306 34.7867 20.0061 34.3491 20.4155 33.9662C20.7958 33.6106 21.2638 33.4191 21.8487 33.4191H38.9007C39.4272 33.4191 39.8952 33.6106 40.3047 33.9935C40.6849 34.4311 40.8896 34.8414 40.8896 35.279C40.8896 35.8261 40.6849 36.2637 40.3047 36.6193C39.9244 37.0022 39.4564 37.1663 38.9007 37.1663H23.8084ZM36.8533 49.3652V43.2384C36.8533 42.7461 37.0288 42.3084 37.4383 41.9255C37.8185 41.5699 38.2865 41.3785 38.8715 41.3785C39.4272 41.3785 39.8952 41.5699 40.3047 41.9255C40.6849 42.2811 40.8896 42.7187 40.8896 43.2384V51.2251C40.8896 51.7721 40.6849 52.2097 40.3047 52.5653C39.8952 52.9482 39.4272 53.1123 38.8715 53.1123H21.8195C21.2345 53.1123 20.7665 52.9482 20.3863 52.5653C20.0061 52.2371 19.8306 51.7994 19.8306 51.2524C19.8306 50.7327 20.0061 50.2951 20.3863 49.9122C20.7665 49.5566 21.2345 49.3652 21.8195 49.3652H36.8533Z" fill="white" fill-opacity="0.5"/>
<path d="M53.962 44.0589H55.6291V42.4999H53.962V44.0589ZM53.3477 41.9255H56.2434V44.6333H53.3477V41.9255ZM57.6473 47.2317C57.9398 47.2317 58.2615 47.1223 58.6125 46.8761C58.8758 46.5753 59.022 46.2744 59.022 45.9462V40.5853C59.022 40.257 58.8758 39.9562 58.6125 39.6827C58.32 39.4365 57.9983 39.2997 57.6473 39.2997H51.9438C51.5928 39.2997 51.2711 39.4365 50.9494 39.6827C50.6861 40.0109 50.5691 40.3118 50.5691 40.5853V45.9462C50.5691 46.2744 50.6861 46.5753 50.9494 46.8761C51.2711 47.1223 51.5928 47.2317 51.9438 47.2317H57.6473ZM51.9438 47.8061C51.4173 47.8061 50.9201 47.642 50.5106 47.2864C50.1304 46.9035 49.9549 46.4385 49.9549 45.9462V40.5853C49.9549 40.3391 49.9841 40.1203 50.1011 39.9015C50.1889 39.71 50.3059 39.5186 50.4814 39.2997C50.8909 38.9168 51.3588 38.7254 51.9438 38.7254H57.6473C58.1738 38.7254 58.6418 38.9168 59.0512 39.2724C59.4315 39.628 59.6362 40.0656 59.6362 40.5853V45.9462C59.6362 46.4932 59.4315 46.9309 59.022 47.3138C58.554 47.642 58.1153 47.8061 57.6473 47.8061H51.9438ZM46.2696 52.5379C46.5913 52.5379 46.913 52.4285 47.264 52.155C47.498 51.9362 47.6442 51.6353 47.6442 51.2524V36.6193H60.1042L61.9176 39.163V45.9462C61.9176 46.2744 62.0639 46.5753 62.3563 46.8488C62.6781 47.1223 62.9998 47.2317 63.3216 47.2317C63.7018 47.2317 64.0235 47.1223 64.316 46.8488C64.5792 46.6026 64.7255 46.3018 64.7255 45.9462V38.7254C64.7255 38.5065 64.6085 38.2877 64.433 38.0963L62.0639 34.5679C61.8006 34.2397 61.5081 34.0482 61.1571 33.9935H46.2696C45.8893 33.9935 45.5676 34.1303 45.3044 34.3764C45.0119 34.65 44.8949 34.9508 44.8949 35.3064V51.2524C44.8949 51.608 45.0119 51.9089 45.3044 52.155C45.5676 52.4285 45.8893 52.5379 46.2696 52.5379ZM46.2696 53.1123C45.6846 53.1123 45.2166 52.9482 44.8364 52.5926C44.4561 52.2371 44.2806 51.7994 44.2806 51.2524V35.3064C44.2806 34.7867 44.4561 34.3491 44.8364 33.9662C45.2166 33.6106 45.6846 33.4191 46.2696 33.4191H61.2449C61.5081 33.4738 61.7421 33.5559 61.9761 33.6653C62.1809 33.7747 62.3856 33.9662 62.5611 34.2123L64.9595 37.7133L64.9887 37.7407C65.1057 37.9322 65.1935 38.0963 65.252 38.233C65.3105 38.3971 65.3397 38.5612 65.3397 38.7254V45.9462C65.3397 46.4932 65.135 46.9309 64.7547 47.2864C64.3453 47.642 63.8773 47.8061 63.3216 47.8061C62.7366 47.8061 62.2394 47.642 61.8884 47.2864C61.4789 46.9309 61.3034 46.4932 61.3034 45.9462V39.4091L59.724 37.1663H48.2585V51.2524C48.2585 51.7994 48.0537 52.2644 47.6442 52.5926C47.264 52.9482 46.796 53.1123 46.2696 53.1123Z" fill="white" fill-opacity="0.5"/>
<path d="M78.4121 44.0589H80.0792V42.4999H78.4121V44.0589ZM77.7978 41.9255H80.6935V44.6333H77.7978V41.9255ZM82.0974 47.2317C82.3899 47.2317 82.7116 47.1223 83.0626 46.8761C83.3258 46.5753 83.4721 46.2744 83.4721 45.9462V40.5853C83.4721 40.257 83.3258 39.9562 83.0626 39.6827C82.7701 39.4365 82.4484 39.2997 82.0974 39.2997H76.3939C76.0429 39.2997 75.7212 39.4365 75.3994 39.6827C75.1362 40.0109 75.0192 40.3118 75.0192 40.5853V45.9462C75.0192 46.2744 75.1362 46.5753 75.3994 46.8761C75.7212 47.1223 76.0429 47.2317 76.3939 47.2317H82.0974ZM76.3939 47.8061C75.8674 47.8061 75.3702 47.642 74.9607 47.2864C74.5805 46.9035 74.405 46.4385 74.405 45.9462V40.5853C74.405 40.3391 74.4342 40.1203 74.5512 39.9015C74.639 39.71 74.756 39.5186 74.9315 39.2997C75.3409 38.9168 75.8089 38.7254 76.3939 38.7254H82.0974C82.6239 38.7254 83.0918 38.9168 83.5013 39.2724C83.8816 39.628 84.0863 40.0656 84.0863 40.5853V45.9462C84.0863 46.4932 83.8816 46.9309 83.4721 47.3138C83.0041 47.642 82.5654 47.8061 82.0974 47.8061H76.3939ZM72.884 33.9935C72.4746 34.0482 72.1528 34.2397 71.9773 34.5679L69.6082 38.0963C69.4327 38.3151 69.345 38.5339 69.345 38.7254V51.2251C69.345 51.608 69.462 51.9089 69.7544 52.155C70.0177 52.4285 70.3394 52.5379 70.7489 52.5379C71.0414 52.5379 71.3631 52.4285 71.7141 52.155C71.9481 51.9362 72.0943 51.608 72.0943 51.2251V39.1356L73.9078 36.6193H84.5543L86.3677 39.163V51.2251C86.3677 51.5806 86.5139 51.8815 86.8064 52.155C87.1282 52.4285 87.4499 52.5379 87.7716 52.5379C88.1519 52.5379 88.4736 52.4285 88.7661 52.155C89.0293 51.9089 89.1756 51.608 89.1756 51.2251V38.7254C89.1756 38.5065 89.0586 38.2877 88.8831 38.0963L86.5139 34.5679C86.2507 34.2397 85.9582 34.0482 85.6072 33.9935H72.884ZM85.695 33.4191C85.9582 33.4738 86.1922 33.5559 86.4262 33.6653C86.6309 33.7747 86.8357 33.9662 87.0112 34.2123L89.4096 37.7133C89.5266 37.9048 89.6436 38.0689 89.702 38.2057C89.7605 38.3698 89.7898 38.5339 89.7898 38.7254V51.2251C89.7898 51.7721 89.5851 52.2097 89.2048 52.5653C88.7953 52.9482 88.3274 53.1123 87.7716 53.1123C87.1867 53.1123 86.6894 52.9482 86.3385 52.5926C85.929 52.2371 85.7535 51.7721 85.7535 51.2251V39.4091L84.174 37.1663H74.2587L72.7086 39.3818V51.2251C72.7086 51.7994 72.5038 52.2644 72.0943 52.5926C71.7141 52.9482 71.2754 53.1123 70.7489 53.1123C70.1639 53.1123 69.6959 52.9482 69.3157 52.5653C68.9062 52.2097 68.7307 51.7721 68.7307 51.2251V38.7254C68.7307 38.5612 68.7307 38.3971 68.7892 38.233C68.8477 38.0963 68.9355 37.9322 69.0817 37.7407L71.4801 34.2123C71.6264 33.9662 71.8018 33.7747 72.0358 33.6653C72.2698 33.5559 72.5038 33.4738 72.7963 33.4191H85.695Z" fill="white" fill-opacity="0.5"/>
<path d="M102.862 44.0589H104.559V42.4999H102.862V44.0589ZM102.248 44.6333V41.9255H105.173V44.6333H102.248ZM113.977 52.3465C114.386 52.073 114.62 51.69 114.62 51.2524C114.62 51.0336 114.532 50.7874 114.386 50.5139V50.5413L111.929 47.0403C111.607 46.6573 111.198 46.4385 110.701 46.4385C110.438 46.4385 110.204 46.5206 109.999 46.6573C109.648 46.8761 109.472 47.1497 109.414 47.4779L109.355 47.8061C109.355 48.0249 109.443 48.2164 109.619 48.4352L112.017 51.9636C112.222 52.2918 112.543 52.4559 112.953 52.5106C112.953 52.5379 113.07 52.5379 113.275 52.5379C113.538 52.5379 113.772 52.4832 113.977 52.3465ZM114.298 52.8662C113.889 53.0303 113.567 53.1123 113.275 53.1123C113.011 53.1123 112.865 53.1123 112.807 53.085C112.251 53.0303 111.812 52.7841 111.491 52.3465L109.121 48.8181L109.092 48.7908C108.858 48.5172 108.741 48.1617 108.741 47.7241L108.8 47.4232C108.858 46.8761 109.121 46.4659 109.589 46.1924C109.94 45.9735 110.291 45.8641 110.701 45.8641C111.374 45.8641 111.958 46.165 112.426 46.712L114.883 50.1583C114.971 50.3772 115.059 50.5686 115.117 50.7327C115.176 50.9242 115.234 51.0883 115.234 51.2524C115.234 51.9089 114.971 52.4285 114.445 52.8115L114.298 52.8662ZM106.606 47.2317C106.898 47.2317 107.22 47.1223 107.542 46.8761C107.805 46.5753 107.951 46.2744 107.951 45.9462V40.5853C107.951 40.257 107.805 39.9562 107.542 39.6827C107.279 39.4365 106.957 39.2997 106.606 39.2997H100.873C100.464 39.2997 100.142 39.4365 99.8788 39.6827C99.6155 39.9835 99.4985 40.2844 99.4985 40.5853V45.9462C99.4985 46.2744 99.6155 46.6026 99.8788 46.8761C100.171 47.1223 100.522 47.2317 100.873 47.2317H106.606ZM100.873 47.8061C100.347 47.8061 99.8495 47.642 99.44 47.2864C99.0598 46.9582 98.8843 46.4932 98.8843 45.9462V40.5853C98.8843 40.1203 99.0598 39.6827 99.4108 39.2997C99.8203 38.9168 100.288 38.7254 100.873 38.7254H106.606C107.132 38.7254 107.6 38.9168 107.981 39.2724C108.361 39.628 108.566 40.0656 108.566 40.5853V45.9462C108.566 46.4932 108.361 46.9309 107.951 47.3138C107.717 47.4779 107.513 47.5873 107.308 47.6693C107.103 47.7788 106.869 47.8061 106.606 47.8061H100.873ZM95.1697 52.5379C95.5207 52.5379 95.8424 52.4285 96.1934 52.155C96.4274 51.9362 96.5737 51.6353 96.5737 51.2524V36.6193H109.034L110.876 39.163V40.6947C110.876 41.0502 110.993 41.3511 111.286 41.5973C111.578 41.8708 111.9 42.0076 112.251 42.0076C112.631 42.0076 112.953 41.8981 113.245 41.6246C113.538 41.3785 113.684 41.0776 113.684 40.6947V38.7254C113.684 38.5065 113.567 38.2877 113.392 38.0963L111.023 34.5679C110.789 34.2397 110.467 34.0482 110.087 33.9935H95.199C94.7895 33.9935 94.4678 34.1303 94.2045 34.3764C93.912 34.65 93.795 34.9508 93.795 35.3064V51.2524C93.795 51.608 93.912 51.9089 94.2045 52.155C94.4678 52.4285 94.7895 52.5379 95.1697 52.5379ZM95.1697 53.1123C94.5848 53.1123 94.1168 52.9482 93.7365 52.5926C93.3563 52.2371 93.1808 51.7994 93.1808 51.2524V35.3064C93.1808 34.7867 93.3563 34.3491 93.7658 33.9662C94.146 33.6106 94.614 33.4191 95.199 33.4191H110.174C110.73 33.5285 111.169 33.7747 111.52 34.2123L113.918 37.7407C114.152 38.0963 114.298 38.4245 114.298 38.7254V40.6947C114.298 41.2417 114.094 41.6793 113.684 42.0349C113.275 42.3905 112.807 42.5546 112.251 42.5546C111.666 42.5546 111.198 42.3905 110.847 42.0623C110.438 41.652 110.262 41.187 110.262 40.6947V39.4091L108.683 37.1663H97.1879V51.2524C97.1879 51.7721 96.9831 52.2097 96.5737 52.5926C96.1934 52.9482 95.7255 53.1123 95.1697 53.1123Z" fill="white" fill-opacity="0.5"/>
<path d="M127.369 44.0316H129.066V42.4725H127.369V44.0316ZM129.68 44.606H126.755V41.8981H129.68V44.606ZM138.484 52.3465C138.893 52.073 139.127 51.69 139.127 51.2524C139.127 51.0336 139.04 50.7874 138.893 50.5139V50.5413L136.378 47.0403C136.056 46.6573 135.647 46.4385 135.15 46.4385C134.886 46.4385 134.652 46.5206 134.448 46.6573C134.272 46.7667 134.126 46.9035 134.038 47.0403C133.95 47.177 133.892 47.3138 133.863 47.4779L133.804 47.8061C133.804 48.0249 133.892 48.2164 134.067 48.4352L136.524 51.9636C136.729 52.2918 137.051 52.4559 137.46 52.5106C137.46 52.5379 137.577 52.5379 137.782 52.5379C138.045 52.5379 138.279 52.4832 138.484 52.3465ZM138.484 34.185C138.279 34.0756 138.045 33.9935 137.782 33.9935C137.577 33.9935 137.46 34.0209 137.46 34.0209C137.051 34.0756 136.729 34.267 136.524 34.5679L134.067 38.0963C133.892 38.3151 133.804 38.5339 133.804 38.7254L133.863 39.0536C133.892 39.2177 133.95 39.3818 134.038 39.5186C134.126 39.6553 134.272 39.7647 134.448 39.8741C134.652 40.0382 134.886 40.0929 135.15 40.0929C135.647 40.0929 136.056 39.9015 136.378 39.4912L138.893 35.9902V36.0175C139.04 35.7714 139.127 35.5252 139.127 35.279C139.127 34.8414 138.893 34.4858 138.484 34.185ZM138.806 52.8662C138.396 53.0303 138.074 53.1123 137.782 53.1123C137.519 53.1123 137.372 53.1123 137.314 53.085C136.758 53.0303 136.319 52.7841 135.998 52.3465L133.57 48.8181L133.541 48.7908C133.307 48.5172 133.19 48.1617 133.19 47.7241L133.248 47.4232C133.365 46.8761 133.629 46.4659 134.038 46.1924C134.389 45.9735 134.769 45.8641 135.15 45.8641C135.822 45.8641 136.407 46.165 136.875 46.712L139.303 49.9669C139.42 50.2131 139.537 50.4319 139.625 50.6507C139.683 50.8695 139.742 51.0883 139.742 51.2524C139.742 51.9089 139.478 52.4285 138.952 52.8115L138.806 52.8662ZM138.952 33.72C139.478 34.1029 139.742 34.6226 139.742 35.279C139.742 35.4705 139.683 35.662 139.625 35.8808C139.537 36.0996 139.42 36.3458 139.303 36.5646L136.875 39.8468C136.407 40.3938 135.851 40.6673 135.15 40.6673C134.74 40.6673 134.36 40.5853 134.038 40.3665C133.629 40.0929 133.365 39.6827 133.248 39.1356L133.19 38.8074C133.19 38.4245 133.307 38.0689 133.57 37.7133L135.998 34.2123C136.144 34.0209 136.319 33.8568 136.553 33.72C136.758 33.5832 137.021 33.5012 137.314 33.4465C137.372 33.4465 137.519 33.4191 137.782 33.4191C138.074 33.4191 138.396 33.5012 138.806 33.6653L138.952 33.72ZM119.677 33.9935C119.297 33.9935 118.975 34.1303 118.712 34.3764C118.419 34.65 118.302 34.9508 118.302 35.279V51.2251C118.302 51.608 118.419 51.9089 118.712 52.155C118.975 52.4285 119.297 52.5379 119.677 52.5379C120.028 52.5379 120.35 52.4285 120.701 52.155C120.935 51.9362 121.081 51.608 121.081 51.2251V35.279C121.081 34.9235 120.935 34.6226 120.701 34.3764C120.35 34.1303 120.028 33.9935 119.677 33.9935ZM125.38 39.2997C125.029 39.2997 124.678 39.4365 124.386 39.6553C124.123 39.9562 124.006 40.257 124.006 40.5853V45.9462C124.006 46.2744 124.123 46.5753 124.386 46.8488C124.649 47.1223 124.971 47.2317 125.38 47.2317H131.113C131.464 47.2317 131.786 47.1223 132.049 46.8488C132.312 46.6026 132.459 46.3018 132.459 45.9462V40.5853C132.459 40.2844 132.312 39.9835 132.049 39.6553C131.727 39.4365 131.406 39.2997 131.113 39.2997H125.38ZM119.677 33.4191C120.203 33.4191 120.671 33.6106 121.081 33.9662C121.49 34.3491 121.695 34.7867 121.695 35.279V51.2251C121.695 51.7721 121.49 52.2097 121.081 52.5926C120.701 52.9482 120.233 53.1123 119.677 53.1123C119.092 53.1123 118.624 52.9482 118.244 52.5653C117.864 52.2097 117.688 51.7721 117.688 51.2251V35.279C117.688 34.7594 117.864 34.3217 118.244 33.9662C118.624 33.6106 119.092 33.4191 119.677 33.4191ZM131.113 38.7254C131.376 38.7254 131.61 38.7801 131.815 38.8621C132.02 38.9715 132.225 39.0809 132.459 39.2177C132.868 39.6006 133.073 40.0656 133.073 40.5853V45.9462C133.073 46.4932 132.868 46.9309 132.488 47.2864C132.108 47.642 131.64 47.8061 131.113 47.8061H125.38C124.795 47.8061 124.327 47.6146 123.918 47.2317C123.567 46.8488 123.392 46.4385 123.392 45.9462V40.5853C123.392 40.0382 123.567 39.6006 123.947 39.245C124.357 38.9168 124.854 38.7254 125.38 38.7254H131.113Z" fill="white" fill-opacity="0.5"/>
<path d="M144.184 33.4191C144.711 33.4191 145.149 33.6106 145.559 33.9662C145.968 34.3491 146.173 34.7867 146.173 35.279V47.1497L147.752 49.3652H161.265C161.792 49.3652 162.26 49.5566 162.669 49.9122C163.05 50.3498 163.254 50.7874 163.254 51.2251C163.254 51.7721 163.05 52.2097 162.669 52.5653C162.289 52.9482 161.821 53.1123 161.265 53.1123H146.261C145.968 53.085 145.734 53.0029 145.5 52.8935C145.266 52.7841 145.091 52.5926 144.945 52.3191L142.546 48.7908C142.312 48.5172 142.195 48.189 142.195 47.8061V35.279C142.195 34.7594 142.371 34.3217 142.751 33.9662C143.131 33.6106 143.599 33.4191 144.184 33.4191ZM144.184 33.9935C143.804 33.9935 143.482 34.1303 143.219 34.3764C142.926 34.65 142.809 34.9508 142.809 35.279V47.8061C142.809 48.0249 142.897 48.2164 143.073 48.4352L145.442 51.9636C145.617 52.2918 145.939 52.4832 146.349 52.5379H161.265C161.616 52.5379 161.938 52.4285 162.231 52.155C162.494 51.9089 162.64 51.608 162.64 51.2251C162.64 50.9515 162.494 50.6507 162.231 50.3225C161.938 50.0489 161.616 49.9122 161.265 49.9122H147.402L145.559 47.3685V35.279C145.559 34.9235 145.413 34.6226 145.179 34.3764C144.828 34.1303 144.506 33.9935 144.184 33.9935ZM149.858 38.7254C150.356 38.7254 150.824 38.9168 151.292 39.2724C151.672 39.6553 151.877 40.0929 151.877 40.5853V44.0316H155.767C156.147 44.0863 156.556 44.2777 156.966 44.606C157.346 45.0436 157.551 45.4812 157.551 45.9188C157.551 46.4659 157.346 46.9035 156.966 47.2591C156.556 47.642 156.088 47.8061 155.562 47.8061H149.858C149.273 47.8061 148.805 47.642 148.425 47.2864C148.045 46.9309 147.869 46.4932 147.869 45.9462V40.5853C147.869 40.0656 148.045 39.628 148.425 39.2724C148.805 38.9168 149.273 38.7254 149.858 38.7254ZM149.858 39.2997C149.478 39.2997 149.156 39.4365 148.893 39.6827C148.601 39.9562 148.484 40.257 148.484 40.5853V45.9462C148.484 46.3018 148.601 46.6026 148.893 46.8488C149.156 47.1223 149.478 47.2317 149.858 47.2317H155.562C155.913 47.2317 156.235 47.1223 156.527 46.8488C156.79 46.6026 156.937 46.3018 156.937 45.9188C156.937 45.6453 156.79 45.3445 156.527 45.0162C156.264 44.7974 156.001 44.6607 155.708 44.606H151.292V40.5853C151.292 40.257 151.145 39.9562 150.853 39.6827C150.502 39.4365 150.18 39.2997 149.858 39.2997Z" fill="white" fill-opacity="0.5"/>
<path d="M166.263 42.4452C165.737 42.4452 165.24 42.2811 164.83 41.9255C164.45 41.5426 164.275 41.0776 164.275 40.5579V35.2517C164.275 34.7867 164.45 34.3491 164.801 33.9662C165.211 33.5832 165.679 33.3918 166.263 33.3918H171.938C172.493 33.3918 172.961 33.5832 173.371 33.9388C173.751 34.2944 173.956 34.732 173.956 35.2517V40.5579C173.956 41.105 173.751 41.5426 173.371 41.8981C172.961 42.2811 172.493 42.4452 171.938 42.4452H166.263ZM166.263 41.8708H171.938C172.318 41.8708 172.64 41.7614 172.932 41.4879C173.195 41.2417 173.342 40.9408 173.342 40.5579V35.2517C173.342 34.9235 173.195 34.6226 172.932 34.3491C172.64 34.1029 172.318 33.9662 171.938 33.9662H166.263C165.913 33.9662 165.591 34.1029 165.269 34.3491C165.006 34.6773 164.889 34.9782 164.889 35.2517V40.5579C164.889 40.8861 165.006 41.2144 165.269 41.4879C165.591 41.7614 165.913 41.8708 166.263 41.8708ZM169.071 53.1123C168.545 53.1123 168.048 52.9482 167.638 52.5926C167.258 52.2371 167.082 51.7994 167.082 51.2524V45.7C167.082 45.1803 167.258 44.7427 167.638 44.3598C168.048 44.0042 168.545 43.8128 169.071 43.8128C169.627 43.8128 170.095 44.0042 170.505 44.3598C170.885 44.7427 171.09 45.1803 171.09 45.7V51.2524C171.09 51.7994 170.885 52.2371 170.505 52.5926C170.095 52.9482 169.627 53.1123 169.071 53.1123ZM169.071 52.5379C169.452 52.5379 169.773 52.4285 170.066 52.155C170.329 51.9089 170.475 51.608 170.475 51.2524V45.7C170.475 45.3445 170.329 45.0436 170.066 44.7701C169.773 44.5239 169.452 44.3871 169.071 44.3871C168.75 44.3871 168.428 44.5239 168.106 44.7701C167.814 45.0436 167.667 45.3445 167.667 45.7V51.2524C167.667 51.5806 167.814 51.8815 168.106 52.155C168.428 52.4285 168.75 52.5379 169.071 52.5379ZM167.609 39.2724V36.5919H170.534V39.2724H167.609ZM168.223 37.139V38.698H169.92V37.139H168.223Z" fill="white" fill-opacity="0.5"/>
<path d="M185.02 47.2317C185.341 47.2317 185.663 47.1223 186.014 46.8488C186.248 46.63 186.394 46.3565 186.453 46.0556V41.9255H189.319V46.0556C189.348 46.3838 189.495 46.63 189.729 46.8488C190.05 47.1223 190.372 47.2317 190.694 47.2317C191.074 47.2317 191.396 47.1223 191.688 46.8488C191.952 46.6026 192.098 46.3018 192.098 45.9462V40.5853C192.098 40.257 191.952 39.9562 191.688 39.6827C191.396 39.4365 191.074 39.2997 190.723 39.2997H185.02C184.669 39.2997 184.347 39.4365 184.025 39.6827C183.762 40.0109 183.645 40.3118 183.645 40.5853V45.9462C183.645 46.3018 183.762 46.6026 184.054 46.8488C184.318 47.1223 184.639 47.2317 185.02 47.2317ZM185.02 47.8061C184.435 47.8061 183.967 47.642 183.586 47.2864C183.206 46.9309 183.031 46.4932 183.031 45.9462V40.5853C183.031 40.3391 183.06 40.1203 183.177 39.9015C183.265 39.71 183.382 39.5186 183.557 39.2997C183.967 38.9168 184.435 38.7254 185.02 38.7254H190.723C191.25 38.7254 191.718 38.9168 192.127 39.2724C192.507 39.628 192.712 40.0656 192.712 40.5853V45.9462C192.712 46.4932 192.507 46.9309 192.127 47.2864C191.718 47.642 191.25 47.8061 190.694 47.8061C190.109 47.8061 189.641 47.642 189.29 47.2864C189.114 47.1497 188.997 46.9856 188.88 46.7941C188.763 46.6026 188.705 46.3838 188.705 46.1103V42.4999H187.038V46.1103C187.038 46.5479 186.833 46.9309 186.453 47.2864C186.014 47.642 185.546 47.8061 185.02 47.8061ZM179.345 33.9935C178.965 33.9935 178.643 34.1303 178.38 34.3764C178.088 34.65 177.971 34.9508 177.971 35.3064V51.2524C177.971 51.608 178.088 51.9089 178.38 52.155C178.643 52.4285 178.965 52.5379 179.345 52.5379C179.667 52.5379 179.989 52.4285 180.34 52.155C180.574 51.9362 180.72 51.6353 180.72 51.2524V36.6193H193.18L194.993 39.163V51.2251C194.993 51.5806 195.14 51.8815 195.432 52.155C195.754 52.4285 196.076 52.5379 196.397 52.5379C196.778 52.5379 197.099 52.4285 197.392 52.155C197.655 51.9089 197.801 51.608 197.801 51.2251V38.7254C197.801 38.5065 197.684 38.2877 197.509 38.0963L195.14 34.5679C194.876 34.2397 194.584 34.0482 194.233 33.9935H179.345ZM194.321 33.4191C194.584 33.4738 194.818 33.5559 195.052 33.6653C195.257 33.7747 195.461 33.9662 195.637 34.2123L198.035 37.7133C198.152 37.9048 198.269 38.0689 198.328 38.2057C198.386 38.3698 198.416 38.5339 198.416 38.7254V51.2251C198.416 51.7721 198.211 52.2097 197.831 52.5653C197.421 52.9482 196.953 53.1123 196.397 53.1123C195.812 53.1123 195.315 52.9482 194.964 52.5926C194.555 52.2371 194.379 51.7721 194.379 51.2251V39.4091L192.8 37.1663H181.334V51.2524C181.334 51.7994 181.13 52.2644 180.72 52.5926C180.34 52.9482 179.872 53.1123 179.345 53.1123C178.76 53.1123 178.292 52.9482 177.912 52.5926C177.532 52.2371 177.357 51.7994 177.357 51.2524V35.3064C177.357 34.7867 177.532 34.3491 177.912 33.9662C178.292 33.6106 178.76 33.4191 179.345 33.4191H194.321Z" fill="white" fill-opacity="0.5"/>
<path d="M211.488 44.0589H213.184V42.4999H211.488V44.0589ZM213.799 41.9255V44.6333H210.903V41.9255H213.799ZM215.173 47.2317C215.495 47.2317 215.817 47.1223 216.138 46.8761C216.402 46.5753 216.548 46.2744 216.548 45.9462V40.5853C216.548 40.3118 216.402 40.0109 216.138 39.6827C215.846 39.4365 215.524 39.2997 215.173 39.2997H209.47C209.09 39.2997 208.768 39.4365 208.505 39.6827C208.212 39.9562 208.095 40.257 208.095 40.5853V45.9462C208.095 46.2744 208.212 46.5753 208.505 46.8761C208.826 47.1223 209.148 47.2317 209.47 47.2317H215.173ZM209.47 47.8061C209.177 47.8061 208.943 47.7788 208.739 47.6693C208.505 47.5873 208.3 47.4779 208.095 47.3138C207.686 46.9309 207.481 46.4932 207.481 45.9462V40.5853C207.481 40.0656 207.656 39.628 208.037 39.2724C208.417 38.9168 208.885 38.7254 209.47 38.7254H215.173C215.7 38.7254 216.168 38.9168 216.636 39.2997C216.782 39.5186 216.899 39.71 217.016 39.9015C217.104 40.1203 217.162 40.3391 217.162 40.5853V45.9462C217.162 46.4385 216.957 46.9035 216.606 47.2864C216.168 47.642 215.7 47.8061 215.173 47.8061H209.47ZM205.17 39.163L207.013 36.6193H220.877C221.228 36.6193 221.549 36.5099 221.842 36.2364C222.105 35.9628 222.251 35.662 222.251 35.279C222.251 35.0055 222.105 34.7047 221.842 34.3764C221.491 34.1303 221.169 33.9935 220.877 33.9935H205.96C205.55 34.0482 205.229 34.2397 205.053 34.5679L202.684 38.0963C202.509 38.3151 202.421 38.5339 202.421 38.7254V51.2524C202.421 51.5533 202.538 51.8542 202.83 52.155C203.094 52.4285 203.415 52.5379 203.796 52.5379H220.848C221.228 52.5379 221.549 52.4285 221.842 52.155C222.105 51.9089 222.251 51.608 222.251 51.2251V43.2384C222.251 42.9102 222.105 42.6093 221.842 42.3358C221.549 42.0896 221.228 41.9529 220.848 41.9529C220.467 41.9529 220.146 42.0896 219.882 42.3358C219.59 42.6093 219.444 42.9102 219.444 43.2384V49.9122H205.17V39.163ZM207.364 37.1663L205.784 39.4091V49.3652H218.829V43.2384C218.829 42.7461 219.005 42.3084 219.414 41.9255C219.795 41.5699 220.263 41.3785 220.848 41.3785C221.403 41.3785 221.871 41.5699 222.281 41.9255C222.661 42.2811 222.866 42.7187 222.866 43.2384V51.2251C222.866 51.7721 222.661 52.2097 222.281 52.5653C221.871 52.9482 221.403 53.1123 220.848 53.1123H203.796C203.211 53.1123 202.743 52.9482 202.362 52.5653C201.982 52.2371 201.807 51.7994 201.807 51.2524V38.7254C201.807 38.5339 201.836 38.3698 201.894 38.2057C201.953 38.0689 202.041 37.9048 202.187 37.7133L204.556 34.2123C204.702 33.9662 204.878 33.7747 205.112 33.6653C205.346 33.5559 205.58 33.4738 205.872 33.4191H220.877C221.403 33.4191 221.871 33.6106 222.281 33.9935C222.661 34.4311 222.866 34.8414 222.866 35.279C222.866 35.8261 222.661 36.2637 222.281 36.6193C221.9 37.0022 221.432 37.1663 220.877 37.1663H207.364Z" fill="white" fill-opacity="0.5"/>
<path d="M28.8042 20.9685L28.8743 21.0341C28.7808 20.9903 28.7223 20.9685 28.6989 20.9685C28.6989 20.9685 28.5585 20.7934 28.2777 20.4433C27.6693 19.6993 26.6982 18.8897 25.3645 18.0145C24.0308 17.1173 22.4747 16.3734 20.6964 15.7826L23.048 15.6185C23.165 15.6185 23.4575 15.6185 23.9255 15.6185C25.7272 15.6185 27.0843 15.7388 27.9969 15.9795C28.5351 16.1327 29.4944 16.8876 30.875 18.2442C32.6767 20.0166 34.2561 22.1829 35.6132 24.743C34.2561 25.5088 33.4137 25.8918 33.0862 25.8918C32.9692 25.8918 32.5714 25.7605 31.8928 25.4979C28.2192 24.0756 25.0252 23.3973 22.3109 23.4629L21.0825 23.4957C19.7488 23.5176 18.4852 23.7583 17.2919 24.2178C15.7943 24.7649 14.9403 25.4104 14.7297 26.1543C14.7063 26.22 14.6946 26.2966 14.6946 26.3841C14.6946 26.9968 15.303 27.3031 16.5197 27.3031C16.7537 27.3031 18.5554 26.9858 21.9249 26.3513C23.6096 26.0449 24.9901 25.8808 26.0665 25.8589L27.8565 25.8261C30.524 25.7823 33.4137 26.6029 36.5258 28.2878C34.8645 28.9661 32.4076 30.268 29.1551 32.1936C28.9211 32.3467 28.6989 32.4999 28.4883 32.6531C26.1952 34.3598 25.072 35.2132 25.1188 35.2132C24.8614 35.2132 23.9606 34.3926 22.4162 32.7515L26.3122 29.7647C26.6865 29.5459 26.8737 29.2834 26.8737 28.977C26.8737 28.7144 26.3122 28.5832 25.189 28.5832C23.8319 28.5832 21.5973 28.8786 18.4852 29.4693L15.2211 30.0601C14.1681 30.2571 13.431 30.3555 13.0099 30.3555C11.6995 30.3555 10.7051 29.8085 10.0265 28.7144C9.8159 28.3643 9.7106 27.883 9.7106 27.2703C9.7106 27.0733 9.94459 26.5154 10.4126 25.5964C11.0677 24.3054 11.9101 23.1456 12.9397 22.1172C14.3436 20.6731 15.9932 19.579 17.8885 18.835C18.0289 18.7913 18.3682 18.7694 18.9064 18.7694C19.702 18.7694 20.5209 18.8788 21.3633 19.0976C22.0887 19.2727 22.7438 19.5243 23.3288 19.8525C22.6736 20.137 21.7143 20.5965 20.4507 21.231L20.1699 21.3623C21.6909 20.6184 22.8959 20.2464 23.7851 20.2464C25.1422 20.2464 26.8386 20.4652 28.8743 20.9028L28.8042 20.9685ZM26.2069 29.9617C26.2303 29.9617 25.9144 29.9398 25.2592 29.896C24.6274 29.8304 24.0659 29.7976 23.5745 29.7976C21.6792 29.7976 19.5265 30.0164 17.1164 30.454C14.7297 30.8916 13.1035 31.1104 12.2377 31.1104C10.9975 31.1104 9.99139 30.7932 9.21923 30.1586C8.42366 29.5022 8.02588 28.616 8.02588 27.5C8.02588 25.9246 8.68105 24.5351 9.99139 23.3316C10.2722 23.3973 10.8338 23.5286 11.6761 23.7255C11.0443 24.4038 10.6115 24.9837 10.3775 25.4651C10.0265 26.209 9.851 26.8545 9.851 27.4016C9.851 28.1236 10.1435 28.7691 10.7285 29.3381C11.3368 29.8851 12.0739 30.1586 12.9397 30.1586C13.4544 30.1586 15.3264 29.8632 18.5554 29.2724C21.7845 28.6816 23.9138 28.3862 24.9433 28.3862C25.2007 28.3862 25.5751 28.43 26.0665 28.5175C26.7216 28.6707 27.0492 28.8348 27.0492 29.0098C27.0492 29.1411 26.9673 29.3162 26.8035 29.535C26.6164 29.8195 26.4175 29.9617 26.2069 29.9617ZM10.5881 39.5457C10.5413 39.5238 10.5179 39.491 10.5179 39.4472C10.5179 38.572 10.7285 37.4123 11.1496 35.9681C11.5708 34.5021 11.992 33.5393 12.4132 33.0798C12.6238 32.8172 13.3374 32.5218 14.5542 32.1936C15.7943 31.8435 16.7654 31.6684 17.4674 31.6684H17.9236C16.8473 33.5502 16.3091 35.1585 16.3091 36.4933C16.3091 37.1278 16.5431 37.4451 17.0111 37.4451C17.3153 37.4451 17.8066 37.1059 18.4852 36.4276C18.9766 35.9462 19.4563 35.4648 19.9242 34.9834C19.9944 34.9397 20.8251 34.2176 22.4162 32.8172L25.0837 35.2788C21.9249 38.2766 19.7371 40.6726 18.5203 42.4669C20.1582 40.3662 22.2407 38.3969 24.7678 36.5589C25.3996 36.0994 26.2303 35.5742 27.2598 34.9834C28.9445 33.9988 29.7986 33.4955 29.822 33.4736C30.641 32.9704 31.0505 32.5546 31.0505 32.2264C31.0505 31.9638 30.7463 31.6903 30.1379 31.4058L33.3319 29.6006C34.3614 30.0164 35.8823 30.9792 37.8946 32.489C33.519 33.7143 29.4827 35.5524 25.7857 38.0031C23.2586 39.666 20.9187 41.6025 18.766 43.8126C16.4495 46.1757 14.8233 48.3967 13.8873 50.4754C12.9514 49.3376 12.1441 47.8715 11.4655 46.0773C10.8104 44.3049 10.4828 42.7294 10.4828 41.3509V40.0708H10.6583C10.6583 40.0708 10.6115 40.0818 10.5179 40.1037V40.0708C10.5413 39.852 10.553 39.677 10.553 39.5457H10.5881Z" fill="#F08BFF"/>
<path d="M68.9631 22.4126C66.436 25.4979 62.8442 28.1127 58.1878 30.2571C55.38 31.57 51.7414 32.85 47.2722 34.0972C48.5826 36.6574 50.5949 39.0096 53.3092 41.154C55.7661 43.0795 58.5388 44.644 61.6275 45.8475C62.3061 46.132 63.3005 46.5149 64.6109 46.9963C64.5407 47.0619 64.4705 47.0948 64.4003 47.0948C62.9495 47.0948 59.7088 46.3289 54.678 44.7972C50.0216 43.3749 47.4594 42.4997 46.9914 42.1715C46.1725 41.6025 45.3184 40.7929 44.4293 39.7426C43.2125 38.3203 42.3702 37.0731 41.9022 36.0009C41.364 36.176 40.545 36.4385 39.4453 36.7887L37.3043 35.7383L41.2704 34.0972C41.013 33.5283 40.8843 32.6968 40.8843 31.6028C40.8843 30.5087 41.0832 29.3928 41.481 28.2549C41.9022 27.0952 42.4638 26.1762 43.1657 25.4979C43.1189 25.476 43.0721 25.4651 43.0253 25.4651L35.2686 27.3031C35.643 25.0493 36.6491 23.2113 38.287 21.789C38.4742 21.6358 39.4219 21.417 41.13 21.1326C41.5512 21.0669 42.6041 20.9685 44.2889 20.8372C45.5992 20.7059 46.6288 20.5308 47.3775 20.312C47.7753 19.94 48.3837 19.4586 49.2026 18.8678C49.7642 18.5834 50.9225 18.288 52.6774 17.9817C54.3387 17.6972 55.6491 17.5659 56.6084 17.5878H57.0998L54.4323 19.951C54.6663 19.9947 54.9588 20.0276 55.3098 20.0494C60.5745 20.0713 65.1256 20.859 68.9631 22.4126ZM57.5561 26.22C57.5561 25.1915 56.0936 24.6773 53.1688 24.6773C53.239 24.6773 53.0284 24.6555 52.537 24.6117C52.069 24.5679 51.6712 24.557 51.3437 24.5789C50.8757 24.6226 50.5364 24.7102 50.3258 24.8414C48.4773 26.1543 47.2956 28.2002 46.7809 30.9792C46.7107 31.373 46.6756 31.5153 46.6756 31.4058V32.2264C47.1903 32.0295 47.8455 31.7559 48.6411 31.4058C50.7704 30.6838 52.3849 30.0164 53.4847 29.4037C54.3036 28.9442 55.1226 28.4956 55.9415 28.058C57.0179 27.3797 57.5561 26.767 57.5561 26.22Z" fill="#F08BFF"/>
<path d="M90.6311 49.5564C89.5782 49.2282 88.7241 48.9547 88.069 48.7359C86.899 48.3639 85.0388 47.6965 82.4883 46.7337C81.8799 46.493 80.9908 46.0663 79.8208 45.4537C79.7038 45.3224 79.4932 45.1145 79.1891 44.83C78.7679 44.3924 78.4403 43.911 78.2063 43.3859C77.5979 41.9636 76.9661 40.1146 76.311 37.839C76.1238 36.8105 75.8313 35.2788 75.4335 33.2439C75.4101 33.1564 75.3282 33.0579 75.1878 32.9485C74.7433 32.9047 74.5444 32.8828 74.5912 32.8828H73.5382L70.7654 32.7515C70.5782 32.7515 70.4729 32.8063 70.4495 32.9157C70.3091 33.2658 70.1688 33.9988 70.0284 35.1147C69.9348 36.0337 69.888 36.5917 69.888 36.7887V37.6748C69.888 37.5217 69.8646 37.6858 69.8178 38.1672C69.7944 38.1891 69.7008 38.2656 69.537 38.3969C68.6244 39.0534 67.2439 40.0271 65.3954 41.3181C65.1614 40.2678 65.0444 39.2175 65.0444 38.1672C65.0444 37.1606 65.138 36.0119 65.3252 34.7209C65.5124 33.408 65.606 32.7625 65.606 32.7844C65.606 32.7187 65.5592 32.6312 65.4656 32.5218H63.7457C63.8159 32.0404 64.0616 31.3621 64.4828 30.4868C64.7402 30.4212 65.0327 30.3884 65.3603 30.3884C65.3837 30.3884 65.5007 30.3993 65.7113 30.4212C65.9218 30.4431 66.0505 30.454 66.0973 30.454C66.1207 30.454 66.1558 30.4212 66.2026 30.3555C66.5302 29.1958 66.8227 28.2878 67.0801 27.6313C67.1971 27.3031 67.5013 26.6467 67.9926 25.662C68.3436 24.9399 68.6361 24.3819 68.8701 23.9881C70.4144 21.3623 71.7482 19.5571 72.8713 18.5724C72.9649 18.5068 73.117 18.463 73.3276 18.4412C73.468 18.4412 73.6435 18.4521 73.8541 18.474C74.0881 18.4959 74.1817 18.5068 74.1349 18.5068C74.9772 18.5068 75.5739 18.5506 75.9249 18.6381C76.0653 18.3974 76.1706 18.1895 76.2408 18.0145C76.3578 17.6863 76.4865 17.3471 76.6269 16.997C76.7673 16.625 76.9895 16.3515 77.2937 16.1764C77.5979 16.0014 78.3701 15.6951 79.6102 15.2574C80.8504 14.7979 82.1958 14.3384 83.6466 13.8789C81.7512 17.0298 80.6164 20.2792 80.242 23.627C80.125 24.8086 80.0548 25.5964 80.0314 25.9902V27.3031H74.907C74.907 27.325 74.907 27.0733 74.907 26.5482L75.0825 24.4804V23.2988C75.0591 23.2769 75.024 23.266 74.9772 23.266C74.907 23.266 74.7199 23.4739 74.4157 23.8896C73.6669 24.8962 72.883 26.1871 72.0641 27.7626C71.7599 28.3315 71.3504 29.2177 70.8356 30.4212C71.0462 30.6619 72.38 30.7822 74.8368 30.7822C75.024 30.7822 75.1176 30.6947 75.1176 30.5197C75.1176 30.4978 75.0942 30.3446 75.0474 30.0601C75.0006 29.7538 74.9772 29.5788 74.9772 29.535V28.616C74.9772 28.1784 74.9772 27.9486 74.9772 27.9267H79.1891C79.3762 27.9267 79.6921 27.9486 80.1367 27.9924C80.1835 28.3425 80.242 28.8676 80.3122 29.5678C80.4058 30.268 80.5111 30.6181 80.6281 30.6181H85.6823C85.6823 30.6181 85.7876 30.6072 85.9981 30.5853C86.2087 30.5853 86.3959 30.5853 86.5597 30.5853L86.8054 30.6181L84.1028 33.1782H81.2599C81.1897 33.2876 81.1546 33.3752 81.1546 33.4408C81.1546 33.6815 81.5289 34.6771 82.2777 36.4276C83.939 40.3225 85.7057 43.4515 87.5776 45.8147C87.6244 45.946 87.718 46.121 87.8584 46.3398C88.4667 47.237 89.391 48.3092 90.6311 49.5564Z" fill="#F08BFF"/>
<path d="M124.301 19.2289C121.4 22.5111 117.621 25.2025 112.964 27.3031C109.548 28.8567 105.067 30.3008 99.5217 31.6356C99.4749 31.745 99.5334 31.8544 99.6972 31.9638C104.049 35.3117 108.308 38.4845 112.473 41.4822L106.085 40.3662C105.149 40.2131 104.213 40.0599 103.277 39.9067C102.061 39.7317 101.148 39.4253 100.54 38.9877C99.4398 38.2438 98.2114 37.1388 96.8543 35.6727C94.9355 33.5721 93.8124 32.3686 93.4848 32.0623L93.2742 32.0295C93.1806 32.0951 93.1104 32.2045 93.0636 32.3577C93.0168 32.6421 92.9934 32.9375 92.9934 33.2439C92.9934 36.351 95.3333 40.1912 100.013 44.7644L96.5033 44.1736C96.1289 44.1517 95.8247 44.1189 95.5907 44.0751C95.0057 43.9657 94.5729 43.8235 94.2921 43.6484C93.7539 43.0576 92.9349 42.1824 91.8352 41.0227C89.2145 38.3532 87.6117 35.9572 87.0267 33.8347C87.0033 33.769 86.9916 33.4736 86.9916 32.9485C86.9214 31.5262 87.015 30.1367 87.2724 28.7801L88.1147 24.6445C88.2551 24.2507 88.3838 23.7474 88.5008 23.1347L96.0119 18.6381C95.8949 19.4039 95.696 20.3777 95.4152 21.5593C95.2748 22.0844 95.1344 22.6205 94.994 23.1675C94.9706 23.3645 94.9823 23.6161 95.0291 23.9224L95.345 23.9881C96.0938 23.4629 96.8426 22.9487 97.5913 22.4454C98.4805 21.8546 99.2643 21.428 99.9429 21.1654C100.06 21.1216 100.212 21.0997 100.399 21.0997C100.306 21.0997 100.855 21.2091 102.049 21.428L104.892 21.8875C105.477 21.9312 106.296 22.0078 107.349 22.1172C108.987 22.2704 110.461 22.347 111.771 22.347C116.31 22.347 120.487 21.3076 124.301 19.2289ZM128.057 51.296L123.705 51.0006L116.123 49.7533C113.339 49.2719 110.625 48.2982 107.98 46.8322C104.915 45.1254 102.33 42.8826 100.224 40.1037L104.857 41.1868L107.033 41.5478C107.711 41.6572 108.378 41.7557 109.033 41.8432C110.414 42.0839 111.42 42.3574 112.052 42.6638C113.269 43.539 115.094 44.7644 117.527 46.3398C120.522 48.0904 124.032 49.7424 128.057 51.296ZM100.961 27.8939C101.008 27.6313 100.972 27.4125 100.855 27.2375C100.738 27.0405 99.7791 26.7998 97.9774 26.5154C96.4097 26.2528 95.228 26.1106 94.4325 26.0887C94.1517 26.9639 93.8358 28.3425 93.4848 30.2243C94.257 30.093 95.3099 29.907 96.6437 29.6663C99.3813 29.2068 100.82 28.616 100.961 27.8939Z" fill="#F08BFF"/>
<path d="M137.979 49.3923C136.599 51.296 135.335 53.134 134.189 54.9064C132.995 53.3309 132.188 51.4054 131.767 49.1297C131.556 47.9044 131.392 45.8256 131.275 42.8935C131.158 40.2021 130.924 38.1453 130.573 36.723C130.316 35.6946 129.626 35.1804 128.503 35.1804C126.771 35.1804 125.051 35.4101 123.343 35.8696L123.133 36.0666C124.045 39.5019 125.847 43.0795 128.538 46.7994C126.455 45.9241 124.384 45.0598 122.325 44.2064C119.939 43.1124 118.008 42.0183 116.534 40.9242C116.277 40.7273 116.136 40.3772 116.113 39.8739C116.113 39.4582 116.113 39.0534 116.113 38.6595C116.698 38.7908 117.119 38.8564 117.376 38.8564C117.915 38.8564 118.184 38.572 118.184 38.0031C118.184 37.6967 118.078 37.3576 117.868 36.9856C117.4 37.0512 116.885 37.084 116.323 37.084L116.183 36.5917V36.4276C116.44 36.2963 116.838 36.1103 117.376 35.8696L117.482 35.6071C116.803 33.2658 116.464 30.1367 116.464 26.22C117.961 24.6883 119.892 23.1238 122.255 21.5264C122.091 24.371 122.009 25.7933 122.009 25.7933C122.009 25.7933 122.021 27.2484 122.045 30.1586C122.091 30.5525 122.138 31.1323 122.185 31.8982C122.255 32.8172 122.372 33.2767 122.536 33.2767C122.653 33.2767 123.285 32.7844 124.431 31.7997C125.578 30.815 126.256 30.1914 126.467 29.9289C126.701 29.6663 126.853 29.4693 126.923 29.3381C127.064 29.1192 127.134 28.8895 127.134 28.6488C127.157 25.7167 127.181 23.9334 127.204 23.2988C127.321 21.2857 127.578 19.5133 127.976 17.9817C129.801 16.6907 132.328 15.4653 135.557 14.3056C135.136 15.3559 134.516 17.4127 133.697 20.4761C133.463 21.3295 133.229 22.7846 132.995 24.8414C132.785 26.7889 132.551 28.1674 132.293 28.977C132.036 29.7647 131.474 30.4212 130.609 30.9463C129.743 31.4715 128.444 32.2592 126.713 33.3095C126.736 33.397 126.806 33.4408 126.923 33.4408C126.9 33.4408 127.216 33.3861 127.871 33.2767C128.994 33.0798 130.105 32.8719 131.205 32.6531C132.562 32.4343 133.685 32.3249 134.575 32.3249C135.136 32.3249 135.534 32.6531 135.768 33.3095C135.815 33.4627 135.908 33.9988 136.049 34.9178C136.236 37.4123 136.423 39.9177 136.61 42.434C136.891 45.9569 137.347 48.2763 137.979 49.3923Z" fill="#F08BFF"/>
<path d="M158.949 55.9786H158.739V55.8801H158.949V55.9786ZM147.051 55.8801C147.308 55.8801 147.788 55.9239 148.49 56.0114C149.215 56.077 149.695 56.1099 149.929 56.1099C151.216 56.1099 151.859 55.8145 151.859 55.2237C151.859 54.3484 151.45 52.948 150.631 51.0224L155.755 49.4142C157.206 53.4841 159.663 57.6744 163.126 61.985C163.009 62.2038 162.588 62.532 161.862 62.9697C161.114 62.7071 160.072 62.3679 158.739 61.9522C155.65 60.9894 151.707 60.3548 146.91 60.0485L147.051 55.8801ZM144.489 39.666C144.746 39.491 146.478 39.1409 149.683 38.6157C152.819 38.1125 154.679 37.8608 155.264 37.8608C155.334 37.8608 155.451 37.8608 155.615 37.8608C155.755 37.8827 155.861 37.8937 155.931 37.8937C155.837 38.7033 155.58 39.5348 155.159 40.3881C154.574 41.5916 153.72 42.9154 152.596 44.3596C152.433 44.5565 151.415 45.8038 149.543 48.1013C147.133 51.0115 144.863 53.6701 142.734 56.077C142.78 56.2521 142.874 56.3396 143.014 56.3396C143.038 56.3396 143.12 56.3068 143.26 56.2411C143.401 56.1755 143.494 56.1317 143.541 56.1099C144.266 55.9567 145.436 55.8801 147.051 55.8801L146.91 60.0485C142.979 60.0485 139.528 60.4205 136.556 61.1644C135.854 61.4051 134.801 61.7443 133.398 62.1819L131.502 60.7378C135.784 57.0179 139.668 52.762 143.155 47.97C143.997 46.8103 144.418 45.935 144.418 45.3442C144.418 44.841 143.997 44.458 143.155 44.1955C142.547 44.0204 141.903 43.9329 141.224 43.9329L144.489 39.666Z" fill="#F08BFF"/>
<path d="M175.488 34.3489C172.025 39.0971 170.211 43.7578 170.048 48.331L164.292 49.1844C164.292 48.7687 164.28 48.1998 164.256 47.4777C164.233 46.7337 164.221 46.1757 164.221 45.8038C164.221 43.5937 164.643 41.7119 165.485 40.1584C165.672 39.7864 166.924 38.8783 169.24 37.4341C169.357 37.3685 169.977 37.0293 171.101 36.4167C172.973 35.3445 174.435 34.6552 175.488 34.3489ZM170.083 48.889L170.399 52.401L171.276 57.2586C171.51 57.9807 171.662 58.5824 171.732 59.0638C171.779 59.2826 171.732 59.4796 171.592 59.6546C171.452 59.8078 171.3 59.9719 171.136 60.147C170.317 61.0441 168.691 62.8602 166.257 65.5954C165.953 65.1359 165.731 64.753 165.59 64.4466C164.561 62.1272 163.894 60.0376 163.59 58.1776L163.028 54.8626C163.309 54.6876 163.601 54.5125 163.905 54.3375C164.21 54.1405 164.373 53.9327 164.397 53.7139C164.42 53.6044 164.397 53.3856 164.327 53.0574C164.256 52.6417 164.221 52.3681 164.221 52.2369C164.175 51.5367 164.21 50.7052 164.327 49.7424L170.083 48.889Z" fill="#F08BFF"/>
<path d="M213.977 36.5151C210.069 37.9593 207.413 39.3816 206.009 40.782C204.746 42.0292 203.74 44.097 202.991 46.9853C202.593 48.1013 202.078 49.7205 201.447 51.843L198.779 63.1338C197.656 63.3307 196.287 62.7727 194.673 61.4598C194.626 61.438 194.357 60.5189 193.865 58.7028C193.187 56.4271 192.227 53.1559 190.987 48.889L190.917 48.7577L188.881 53.3528L182.704 53.878L182.669 53.4841C182.669 53.4841 183.067 52.3244 183.862 50.005C184.681 47.6855 185.067 46.2851 185.02 45.8038C184.974 45.1473 184.588 44.655 183.862 44.3268C183.254 44.0423 182.564 43.9329 181.791 43.9985C181.323 44.0423 179.966 44.3815 177.72 45.016C177.369 45.1035 176.913 45.3333 176.351 45.7053L175.93 45.7381L175.895 45.4427C175.895 45.3989 176 45.2239 176.211 44.9176C176.328 44.655 176.573 44.3158 176.948 43.9001C178.633 42.9154 180.575 42.0511 182.774 41.3071C185.208 40.4975 187.302 40.0927 189.057 40.0927C190.671 40.0927 192.216 40.4975 193.69 41.3071L193.725 41.6354L192.847 43.5062L195.725 53.1559C195.983 52.1712 196.24 51.1866 196.498 50.2019C196.895 48.6483 197.071 47.598 197.024 47.051C196.907 45.7381 196.498 45.1473 195.796 45.2786L195.761 44.6222C195.737 44.4033 195.983 43.5937 196.498 42.1933C196.989 40.8805 197.27 40.1584 197.34 40.0271C197.995 39.0643 198.814 38.2656 199.797 37.6311C200.803 36.9965 201.774 36.6464 202.71 36.5808L213.977 36.5151ZM190.04 60.8362L178.457 64.8077C177.615 65.0921 175.836 65.2344 173.122 65.2344C171.718 65.2344 170.864 65.1359 170.56 64.939L176.105 62.7071C178.586 61.8537 180.645 59.042 182.283 54.2718L188.425 53.7795L188.46 54.0749C187.969 55.2346 187.477 56.4709 186.986 57.7838C187.08 58.6809 187.583 59.0857 188.495 58.9982C188.612 58.9982 188.94 58.9435 189.478 58.8341C189.618 59.2061 189.806 59.8734 190.04 60.8362Z" fill="#F08BFF"/>
<path d="M251.965 71.2408L251.684 71.208L251.719 71.0439L252 71.0767L251.965 71.2408ZM251.509 71.011C248.607 70.4859 245.87 69.8076 243.296 68.9761C241.4 68.3634 239.353 67.6304 237.153 66.777C237.153 66.777 235.188 65.9236 231.257 64.2169C223.02 60.6502 216.785 57.2149 212.549 53.9108C212.339 53.7357 211.964 53.2872 211.426 52.5651C210.607 51.4929 210.245 50.4645 210.338 49.4798L210.654 46.1976C211.099 43.0029 212.234 41.143 214.059 40.6179C216.633 39.852 220.142 39.0971 224.588 38.3532C228.285 37.7624 231.971 37.1716 235.644 36.5808C232.673 38.5501 228.508 41.154 223.149 44.3924C222.588 44.4143 221.71 44.458 220.517 44.5237C218.855 44.6769 217.849 44.7972 217.498 44.8847C216.282 45.1254 215.58 45.5521 215.392 46.1648C215.229 46.6024 215.123 47.0619 215.077 47.5433C214.889 48.8781 215.287 49.9065 216.27 50.6286C216.597 50.8693 217.054 51.1209 217.639 51.3835C218.224 51.6242 218.598 51.7555 218.762 51.7774C218.949 51.7992 219.136 51.7008 219.323 51.482C219.464 51.3288 219.546 51.2084 219.569 51.1209C219.639 50.5739 219.347 49.633 218.692 48.2982C219.23 48.3857 219.756 48.4623 220.271 48.528C220.95 48.6593 221.429 48.8234 221.71 49.0203C222.599 49.7424 223.699 50.7708 225.009 52.1056C226.671 53.8123 227.712 54.8736 228.133 55.2893C234.615 61.2848 239.739 65.3547 243.506 67.4991C246.946 69.4465 249.613 70.6172 251.509 71.011Z" fill="#F08BFF"/>
<path d="M85.2023 45.1147H88.8058V41.7833H85.2023V45.1147ZM82.8683 49.48C82.295 49.48 81.7217 49.2886 81.1894 48.8673C80.7799 48.4078 80.5752 47.8717 80.5752 47.2974V39.5623C80.5752 39.0645 80.8209 38.4901 81.3941 37.8391C81.7217 37.5328 82.2131 37.3796 82.8683 37.3796H91.1808C91.795 37.3796 92.3273 37.6094 92.7777 38.0306C93.2282 38.4901 93.4739 38.9879 93.4739 39.5623V47.2974C93.4739 47.8717 93.3101 48.3312 93.0234 48.6759C92.2864 49.212 91.6721 49.48 91.1808 49.48H82.8683ZM74.5967 57.2151C73.9416 57.2151 73.4092 57.0236 72.9588 56.5641C72.4674 56.1429 72.2627 55.6451 72.2627 55.0324V31.8655C72.2627 31.2529 72.4674 30.7551 72.9588 30.2956C73.4092 29.8743 73.9416 29.6446 74.5967 29.6446H96.2993C96.9544 29.7212 97.4868 30.0658 97.8553 30.6019L101.336 35.6948C101.582 36.0394 101.745 36.4223 101.745 36.8435V39.6389C101.745 40.2516 101.5 40.7494 101.049 41.1706C100.599 41.6301 100.067 41.8215 99.4113 41.8215C98.7971 41.8215 98.2238 41.6301 97.7325 41.1706C97.282 40.7494 97.0773 40.2516 97.0773 39.6389V37.6477L94.5385 34.0482H76.9717V52.8114H97.0773V47.3356C97.0773 46.723 97.282 46.2252 97.7325 45.7657C98.2648 45.3444 98.8381 45.1147 99.4113 45.1147C100.067 45.1147 100.599 45.3444 101.049 45.7657C101.5 46.2252 101.745 46.723 101.745 47.3356V55.0324C101.745 55.6451 101.5 56.1429 101.049 56.5641C100.599 57.0236 100.067 57.2151 99.4523 57.2151H74.5967Z" fill="white"/>
<path d="M120.552 45.1147H124.156V41.7833H120.552V45.1147ZM118.218 49.48C117.645 49.48 117.072 49.2886 116.539 48.8673C116.13 48.4078 115.925 47.8717 115.925 47.2974V39.5623C115.925 39.0645 116.171 38.4901 116.744 37.8391C117.072 37.5328 117.563 37.3796 118.218 37.3796H126.531C127.145 37.3796 127.677 37.6094 128.128 38.0306C128.578 38.4901 128.824 38.9879 128.824 39.5623V47.2974C128.824 47.8717 128.66 48.3312 128.373 48.6759C127.636 49.212 127.022 49.48 126.531 49.48H118.218ZM131.649 29.6446C132.304 29.7212 132.837 30.0658 133.205 30.6019L136.686 35.6948C136.931 36.0394 137.095 36.4223 137.095 36.8435V54.9941C137.095 55.6068 136.849 56.1429 136.399 56.5641C135.949 57.0236 135.416 57.2151 134.761 57.2151C134.147 57.2151 133.574 57.0236 133.082 56.5641C132.632 56.1812 132.427 55.6451 132.427 54.9941V37.6477L129.888 34.0482H114.819L112.322 37.6094V54.9941C112.322 55.6451 112.076 56.1812 111.666 56.5641C111.093 57.0236 110.561 57.2151 109.987 57.2151C109.332 57.2151 108.759 57.0236 108.309 56.5641C107.817 56.1429 107.612 55.6068 107.612 54.9941V36.8435C107.612 36.4606 107.735 36.0777 108.063 35.6948L111.544 30.6019C111.871 30.0658 112.403 29.7212 113.1 29.6446H131.649Z" fill="white"/>
<path d="M155.943 45.1147H159.505V41.7833H155.943V45.1147ZM172.773 56.9087C172.363 57.1385 171.995 57.2151 171.585 57.2151C171.257 57.2151 171.053 57.2151 171.012 57.1768C170.357 57.1002 169.824 56.7938 169.497 56.2578L166.016 51.1649C165.689 50.8202 165.566 50.4373 165.566 49.9778L165.648 49.5183C165.729 48.9439 166.057 48.4844 166.63 48.1015C167.04 47.8717 167.449 47.7186 167.859 47.7186C168.719 47.7186 169.415 48.0632 169.906 48.7142L173.51 53.8836C173.755 54.2666 173.878 54.6495 173.878 55.0324C173.878 55.8365 173.51 56.4492 172.814 56.9087H172.773ZM153.609 49.48C152.995 49.48 152.421 49.2886 151.93 48.8673C151.48 48.3695 151.275 47.8334 151.275 47.2974V39.5623C151.275 39.1028 151.52 38.5284 152.094 37.8391C152.421 37.5328 152.913 37.3796 153.609 37.3796H161.88C162.495 37.3796 163.027 37.6094 163.518 38.0306C163.969 38.4901 164.214 38.9879 164.214 39.5623V47.2974C164.214 47.91 164.051 48.3695 163.723 48.6759C162.986 49.212 162.372 49.48 161.88 49.48H153.609ZM145.337 57.2151C144.682 57.2151 144.109 57.0236 143.658 56.5641C143.208 56.1429 143.003 55.6451 143.003 55.0324V31.8655C143.003 31.2529 143.208 30.7551 143.658 30.2956C144.109 29.8743 144.682 29.6446 145.337 29.6446H167.04C167.654 29.7212 168.186 30.0658 168.596 30.6019L172.035 35.6948C172.322 36.0777 172.486 36.4606 172.486 36.8435V39.7155C172.486 40.3281 172.24 40.8259 171.79 41.2472C171.339 41.7067 170.766 41.8981 170.111 41.8981C169.538 41.8981 168.964 41.7067 168.473 41.2472C167.982 40.8259 167.777 40.3281 167.777 39.7155V37.6477L165.238 34.0482H147.671V55.0324C147.671 55.6834 147.426 56.1812 147.016 56.5641C146.443 57.0236 145.911 57.2151 145.337 57.2151Z" fill="white"/>
<path d="M189.385 3.41893L191.774 20.3098L207.636 23.5576L191.884 25.1027L187.923 41.0275L185.414 25.3094L169.642 21.8814L185.424 20.0276L189.385 3.41893Z" fill="white"/>
<path d="M9.13944 7.98193L10.5725 16.6886L18.2789 17.8079L10.7625 18.9042L9.13944 27.6339L7.66309 19.1564L0 17.8079L7.51633 16.7116L9.13944 7.98193Z" fill="white"/>
<path d="M203.298 5.78183L203.761 10.6676L208.025 11.5521L203.782 11.9049L202.536 16.6993L202.04 11.9394L197.809 10.9291L202.052 10.5762L203.298 5.78183Z" fill="white"/>
<path d="M38.8578 64.1425L38.8513 64.2516L38.9542 64.2878L43.5731 65.9201L38.7883 65.6848L38.6813 65.6797L38.6391 65.7789L36.2843 71.3002L36.5648 65.5701L36.5702 65.4657L36.4718 65.4274L31.8225 63.6231L36.7043 63.8634L36.8122 63.8687L36.8545 63.7696L39.2004 58.2654L38.8578 64.1425Z" stroke="white" stroke-width="0.3"/>
<path d="M62.0745 65.51L62.0924 65.6183L62.2009 65.6336L67.0801 66.3276L62.351 67.0316L62.2446 67.0476L62.2254 67.1531L61.1549 73.0156L60.1499 67.3544L60.131 67.25L60.0274 67.2327L55.0783 66.3758L59.906 65.6578L60.0114 65.6419L60.0316 65.5364L61.0973 59.6934L62.0745 65.51Z" stroke="white" stroke-width="0.3"/>
<path d="M86.047 64.371L86.0747 64.4775L86.1842 64.4842L91.1091 64.7906L86.4601 65.8655L86.3555 65.8898L86.3459 65.9964L85.8086 71.9242L84.2959 66.3599L84.2677 66.2584L84.1628 66.2484L79.1565 65.786L83.8996 64.6896L84.0042 64.6653L84.0138 64.5587L84.5475 58.6547L86.047 64.371Z" stroke="white" stroke-width="0.3"/>
</svg>
