<svg width="154" height="149" viewBox="0 0 154 149" fill="none" xmlns="http://www.w3.org/2000/svg">
<mask id="path-1-outside-1_247_3558" maskUnits="userSpaceOnUse" x="0.0463867" y="0.888916" width="154" height="147" fill="black">
<rect fill="white" x="0.0463867" y="0.888916" width="154" height="147"/>
<path d="M113.761 14.8889L116.732 33.3909L132.71 35.7695L117.127 38.0992L113.761 56.6501L110.7 38.6351L94.8124 35.7695L110.396 33.4399L113.761 14.8889Z"/>
<path d="M69.9904 40.512L70.1794 40.7014C69.9274 40.5751 69.7699 40.512 69.7069 40.512C69.7069 40.512 69.3289 40.0071 68.5729 38.9974C66.9349 36.8516 64.3204 34.5165 60.7294 31.992C57.1384 29.4045 52.9489 27.2587 48.1609 25.5547L54.4924 25.0814C54.8074 25.0814 55.5949 25.0814 56.8549 25.0814C61.7059 25.0814 65.3599 25.4285 67.8169 26.1227C69.2659 26.5645 71.8489 28.7418 75.5659 32.6547C80.4169 37.7667 84.6694 44.0147 88.3234 51.3987C84.6694 53.6076 82.4014 54.712 81.5194 54.712C81.2044 54.712 80.1334 54.3334 78.3064 53.576C68.4154 49.4738 59.8159 47.5174 52.5079 47.7067L49.2004 47.8014C45.6094 47.8645 42.2074 48.5587 38.9944 49.884C34.9624 51.4618 32.6629 53.3236 32.0959 55.4694C32.0329 55.6587 32.0014 55.8796 32.0014 56.132C32.0014 57.8991 33.6394 58.7827 36.9154 58.7827C37.5454 58.7827 42.3964 57.8676 51.4684 56.0374C56.0044 55.1538 59.7214 54.6805 62.6194 54.6174L67.4389 54.5227C74.6209 54.3965 82.4014 56.7631 90.7804 61.6227C86.3074 63.5791 79.6924 67.3342 70.9354 72.888C70.3054 73.3298 69.7069 73.7716 69.1399 74.2134C62.9659 79.136 59.9419 81.5974 60.0679 81.5974C59.3749 81.5974 56.9494 79.2307 52.7914 74.4974L63.2809 65.8827C64.2889 65.2516 64.7929 64.4942 64.7929 63.6107C64.7929 62.8534 63.2809 62.4747 60.2569 62.4747C56.6029 62.4747 50.5864 63.3267 42.2074 65.0307L33.4189 66.7347C30.5839 67.3027 28.5994 67.5867 27.4654 67.5867C23.9374 67.5867 21.2599 66.0089 19.4329 62.8534C18.8659 61.8436 18.5824 60.4551 18.5824 58.688C18.5824 58.12 19.2124 56.5107 20.4724 53.86C22.2364 50.1365 24.5044 46.7916 27.2764 43.8254C31.0564 39.66 35.4979 36.5045 40.6009 34.3587C40.9789 34.2325 41.8924 34.1694 43.3414 34.1694C45.4834 34.1694 47.6884 34.4849 49.9564 35.116C51.9094 35.6209 53.6734 36.3467 55.2484 37.2934C53.4844 38.1138 50.9014 39.4391 47.4994 41.2694L46.7434 41.648C50.8384 39.5022 54.0829 38.4294 56.4769 38.4294C60.1309 38.4294 64.6984 39.0605 70.1794 40.3227L69.9904 40.512ZM62.9974 66.4507C63.0604 66.4507 62.2099 66.3876 60.4459 66.2614C58.7449 66.072 57.2329 65.9774 55.9099 65.9774C50.8069 65.9774 45.0109 66.6085 38.5219 67.8707C32.0959 69.1329 27.7174 69.764 25.3864 69.764C22.0474 69.764 19.3384 68.8489 17.2594 67.0187C15.1174 65.1254 14.0464 62.5694 14.0464 59.3507C14.0464 54.8067 15.8104 50.7991 19.3384 47.328C20.0944 47.5174 21.6064 47.896 23.8744 48.464C22.1734 50.4205 21.0079 52.0929 20.3779 53.4814C19.4329 55.6271 18.9604 57.4889 18.9604 59.0667C18.9604 61.1494 19.7479 63.0111 21.3229 64.652C22.9609 66.2298 24.9454 67.0187 27.2764 67.0187C28.6624 67.0187 33.7024 66.1667 42.3964 64.4627C51.0904 62.7587 56.8234 61.9067 59.5954 61.9067C60.2884 61.9067 61.2964 62.0329 62.6194 62.2854C64.3834 62.7271 65.2654 63.2005 65.2654 63.7054C65.2654 64.084 65.0449 64.5889 64.6039 65.22C64.0999 66.0405 63.5644 66.4507 62.9974 66.4507ZM20.9449 94.0934C20.8189 94.0303 20.7559 93.9356 20.7559 93.8094C20.7559 91.2849 21.3229 87.94 22.4569 83.7747C23.5909 79.5462 24.7249 76.7694 25.8589 75.444C26.4259 74.6867 28.3474 73.8347 31.6234 72.888C34.9624 71.8782 37.5769 71.3734 39.4669 71.3734H40.6954C37.7974 76.8009 36.3484 81.4396 36.3484 85.2894C36.3484 87.1196 36.9784 88.0347 38.2384 88.0347C39.0574 88.0347 40.3804 87.0565 42.2074 85.1C43.5304 83.7116 44.8219 82.3231 46.0819 80.9347C46.2709 80.8085 48.5074 78.7258 52.7914 74.6867L59.9734 81.7867C51.4684 90.4329 45.5779 97.3436 42.3019 102.519C46.7119 96.46 52.3189 90.78 59.1229 85.4787C60.8239 84.1534 63.0604 82.6387 65.8324 80.9347C70.3684 78.0947 72.6679 76.6431 72.7309 76.58C74.9359 75.1285 76.0384 73.9294 76.0384 72.9827C76.0384 72.2254 75.2194 71.4365 73.5814 70.616L82.1809 65.4094C84.9529 66.6085 89.0479 69.3854 94.4659 73.74C82.6849 77.2742 71.8174 82.5756 61.8634 89.644C55.0594 94.4405 48.7594 100.026 42.9634 106.4C36.7264 113.216 32.3479 119.622 29.8279 125.617C27.3079 122.336 25.1344 118.107 23.3074 112.932C21.5434 107.82 20.6614 103.276 20.6614 99.3V95.608H21.1339C21.1339 95.608 21.0079 95.6396 20.7559 95.7027V95.608C20.8189 94.9769 20.8504 94.472 20.8504 94.0934H20.9449Z"/>
<path d="M101.099 103.308H109.415V95.0716H101.099V103.308ZM95.7126 114.1C94.3896 114.1 93.0666 113.626 91.8381 112.585C90.8931 111.449 90.4206 110.124 90.4206 108.704V89.5809C90.4206 88.3502 90.9876 86.9302 92.3106 85.3209C93.0666 84.5636 94.2006 84.1849 95.7126 84.1849H114.896C116.314 84.1849 117.542 84.7529 118.582 85.7942C119.621 86.9302 120.188 88.1609 120.188 89.5809V108.704C120.188 110.124 119.81 111.26 119.149 112.112C117.448 113.437 116.03 114.1 114.896 114.1H95.7126ZM76.6236 133.222C75.1116 133.222 73.8831 132.749 72.8436 131.613C71.7096 130.572 71.2371 129.341 71.2371 127.826V70.5529C71.2371 69.0382 71.7096 67.8076 72.8436 66.6716C73.8831 65.6302 75.1116 65.0622 76.6236 65.0622H126.709C128.221 65.2516 129.449 66.1036 130.3 67.4289L138.332 80.0196C138.899 80.8716 139.277 81.8182 139.277 82.8596V89.7702C139.277 91.2849 138.71 92.5156 137.671 93.5569C136.631 94.6929 135.403 95.1662 133.891 95.1662C132.473 95.1662 131.15 94.6929 130.016 93.5569C128.977 92.5156 128.504 91.2849 128.504 89.7702V84.8476L122.645 75.9489H82.1046V122.336H128.504V108.798C128.504 107.284 128.977 106.053 130.016 104.917C131.245 103.876 132.568 103.308 133.891 103.308C135.403 103.308 136.631 103.876 137.671 104.917C138.71 106.053 139.277 107.284 139.277 108.798V127.826C139.277 129.341 138.71 130.572 137.671 131.613C136.631 132.749 135.403 133.222 133.985 133.222H76.6236Z"/>
</mask>
<path d="M113.761 14.8889L116.732 33.3909L132.71 35.7695L117.127 38.0992L113.761 56.6501L110.7 38.6351L94.8124 35.7695L110.396 33.4399L113.761 14.8889Z" fill="white"/>
<path d="M69.9904 40.512L70.1794 40.7014C69.9274 40.5751 69.7699 40.512 69.7069 40.512C69.7069 40.512 69.3289 40.0071 68.5729 38.9974C66.9349 36.8516 64.3204 34.5165 60.7294 31.992C57.1384 29.4045 52.9489 27.2587 48.1609 25.5547L54.4924 25.0814C54.8074 25.0814 55.5949 25.0814 56.8549 25.0814C61.7059 25.0814 65.3599 25.4285 67.8169 26.1227C69.2659 26.5645 71.8489 28.7418 75.5659 32.6547C80.4169 37.7667 84.6694 44.0147 88.3234 51.3987C84.6694 53.6076 82.4014 54.712 81.5194 54.712C81.2044 54.712 80.1334 54.3334 78.3064 53.576C68.4154 49.4738 59.8159 47.5174 52.5079 47.7067L49.2004 47.8014C45.6094 47.8645 42.2074 48.5587 38.9944 49.884C34.9624 51.4618 32.6629 53.3236 32.0959 55.4694C32.0329 55.6587 32.0014 55.8796 32.0014 56.132C32.0014 57.8991 33.6394 58.7827 36.9154 58.7827C37.5454 58.7827 42.3964 57.8676 51.4684 56.0374C56.0044 55.1538 59.7214 54.6805 62.6194 54.6174L67.4389 54.5227C74.6209 54.3965 82.4014 56.7631 90.7804 61.6227C86.3074 63.5791 79.6924 67.3342 70.9354 72.888C70.3054 73.3298 69.7069 73.7716 69.1399 74.2134C62.9659 79.136 59.9419 81.5974 60.0679 81.5974C59.3749 81.5974 56.9494 79.2307 52.7914 74.4974L63.2809 65.8827C64.2889 65.2516 64.7929 64.4942 64.7929 63.6107C64.7929 62.8534 63.2809 62.4747 60.2569 62.4747C56.6029 62.4747 50.5864 63.3267 42.2074 65.0307L33.4189 66.7347C30.5839 67.3027 28.5994 67.5867 27.4654 67.5867C23.9374 67.5867 21.2599 66.0089 19.4329 62.8534C18.8659 61.8436 18.5824 60.4551 18.5824 58.688C18.5824 58.12 19.2124 56.5107 20.4724 53.86C22.2364 50.1365 24.5044 46.7916 27.2764 43.8254C31.0564 39.66 35.4979 36.5045 40.6009 34.3587C40.9789 34.2325 41.8924 34.1694 43.3414 34.1694C45.4834 34.1694 47.6884 34.4849 49.9564 35.116C51.9094 35.6209 53.6734 36.3467 55.2484 37.2934C53.4844 38.1138 50.9014 39.4391 47.4994 41.2694L46.7434 41.648C50.8384 39.5022 54.0829 38.4294 56.4769 38.4294C60.1309 38.4294 64.6984 39.0605 70.1794 40.3227L69.9904 40.512ZM62.9974 66.4507C63.0604 66.4507 62.2099 66.3876 60.4459 66.2614C58.7449 66.072 57.2329 65.9774 55.9099 65.9774C50.8069 65.9774 45.0109 66.6085 38.5219 67.8707C32.0959 69.1329 27.7174 69.764 25.3864 69.764C22.0474 69.764 19.3384 68.8489 17.2594 67.0187C15.1174 65.1254 14.0464 62.5694 14.0464 59.3507C14.0464 54.8067 15.8104 50.7991 19.3384 47.328C20.0944 47.5174 21.6064 47.896 23.8744 48.464C22.1734 50.4205 21.0079 52.0929 20.3779 53.4814C19.4329 55.6271 18.9604 57.4889 18.9604 59.0667C18.9604 61.1494 19.7479 63.0111 21.3229 64.652C22.9609 66.2298 24.9454 67.0187 27.2764 67.0187C28.6624 67.0187 33.7024 66.1667 42.3964 64.4627C51.0904 62.7587 56.8234 61.9067 59.5954 61.9067C60.2884 61.9067 61.2964 62.0329 62.6194 62.2854C64.3834 62.7271 65.2654 63.2005 65.2654 63.7054C65.2654 64.084 65.0449 64.5889 64.6039 65.22C64.0999 66.0405 63.5644 66.4507 62.9974 66.4507ZM20.9449 94.0934C20.8189 94.0303 20.7559 93.9356 20.7559 93.8094C20.7559 91.2849 21.3229 87.94 22.4569 83.7747C23.5909 79.5462 24.7249 76.7694 25.8589 75.444C26.4259 74.6867 28.3474 73.8347 31.6234 72.888C34.9624 71.8782 37.5769 71.3734 39.4669 71.3734H40.6954C37.7974 76.8009 36.3484 81.4396 36.3484 85.2894C36.3484 87.1196 36.9784 88.0347 38.2384 88.0347C39.0574 88.0347 40.3804 87.0565 42.2074 85.1C43.5304 83.7116 44.8219 82.3231 46.0819 80.9347C46.2709 80.8085 48.5074 78.7258 52.7914 74.6867L59.9734 81.7867C51.4684 90.4329 45.5779 97.3436 42.3019 102.519C46.7119 96.46 52.3189 90.78 59.1229 85.4787C60.8239 84.1534 63.0604 82.6387 65.8324 80.9347C70.3684 78.0947 72.6679 76.6431 72.7309 76.58C74.9359 75.1285 76.0384 73.9294 76.0384 72.9827C76.0384 72.2254 75.2194 71.4365 73.5814 70.616L82.1809 65.4094C84.9529 66.6085 89.0479 69.3854 94.4659 73.74C82.6849 77.2742 71.8174 82.5756 61.8634 89.644C55.0594 94.4405 48.7594 100.026 42.9634 106.4C36.7264 113.216 32.3479 119.622 29.8279 125.617C27.3079 122.336 25.1344 118.107 23.3074 112.932C21.5434 107.82 20.6614 103.276 20.6614 99.3V95.608H21.1339C21.1339 95.608 21.0079 95.6396 20.7559 95.7027V95.608C20.8189 94.9769 20.8504 94.472 20.8504 94.0934H20.9449Z" fill="#9E9E9E"/>
<path d="M101.099 103.308H109.415V95.0716H101.099V103.308ZM95.7126 114.1C94.3896 114.1 93.0666 113.626 91.8381 112.585C90.8931 111.449 90.4206 110.124 90.4206 108.704V89.5809C90.4206 88.3502 90.9876 86.9302 92.3106 85.3209C93.0666 84.5636 94.2006 84.1849 95.7126 84.1849H114.896C116.314 84.1849 117.542 84.7529 118.582 85.7942C119.621 86.9302 120.188 88.1609 120.188 89.5809V108.704C120.188 110.124 119.81 111.26 119.149 112.112C117.448 113.437 116.03 114.1 114.896 114.1H95.7126ZM76.6236 133.222C75.1116 133.222 73.8831 132.749 72.8436 131.613C71.7096 130.572 71.2371 129.341 71.2371 127.826V70.5529C71.2371 69.0382 71.7096 67.8076 72.8436 66.6716C73.8831 65.6302 75.1116 65.0622 76.6236 65.0622H126.709C128.221 65.2516 129.449 66.1036 130.3 67.4289L138.332 80.0196C138.899 80.8716 139.277 81.8182 139.277 82.8596V89.7702C139.277 91.2849 138.71 92.5156 137.671 93.5569C136.631 94.6929 135.403 95.1662 133.891 95.1662C132.473 95.1662 131.15 94.6929 130.016 93.5569C128.977 92.5156 128.504 91.2849 128.504 89.7702V84.8476L122.645 75.9489H82.1046V122.336H128.504V108.798C128.504 107.284 128.977 106.053 130.016 104.917C131.245 103.876 132.568 103.308 133.891 103.308C135.403 103.308 136.631 103.876 137.671 104.917C138.71 106.053 139.277 107.284 139.277 108.798V127.826C139.277 129.341 138.71 130.572 137.671 131.613C136.631 132.749 135.403 133.222 133.985 133.222H76.6236Z" fill="white"/>
<path d="M113.761 14.8889L116.732 33.3909L132.71 35.7695L117.127 38.0992L113.761 56.6501L110.7 38.6351L94.8124 35.7695L110.396 33.4399L113.761 14.8889Z" stroke="white" stroke-width="28" stroke-linejoin="round" mask="url(#path-1-outside-1_247_3558)"/>
<path d="M69.9904 40.512L70.1794 40.7014C69.9274 40.5751 69.7699 40.512 69.7069 40.512C69.7069 40.512 69.3289 40.0071 68.5729 38.9974C66.9349 36.8516 64.3204 34.5165 60.7294 31.992C57.1384 29.4045 52.9489 27.2587 48.1609 25.5547L54.4924 25.0814C54.8074 25.0814 55.5949 25.0814 56.8549 25.0814C61.7059 25.0814 65.3599 25.4285 67.8169 26.1227C69.2659 26.5645 71.8489 28.7418 75.5659 32.6547C80.4169 37.7667 84.6694 44.0147 88.3234 51.3987C84.6694 53.6076 82.4014 54.712 81.5194 54.712C81.2044 54.712 80.1334 54.3334 78.3064 53.576C68.4154 49.4738 59.8159 47.5174 52.5079 47.7067L49.2004 47.8014C45.6094 47.8645 42.2074 48.5587 38.9944 49.884C34.9624 51.4618 32.6629 53.3236 32.0959 55.4694C32.0329 55.6587 32.0014 55.8796 32.0014 56.132C32.0014 57.8991 33.6394 58.7827 36.9154 58.7827C37.5454 58.7827 42.3964 57.8676 51.4684 56.0374C56.0044 55.1538 59.7214 54.6805 62.6194 54.6174L67.4389 54.5227C74.6209 54.3965 82.4014 56.7631 90.7804 61.6227C86.3074 63.5791 79.6924 67.3342 70.9354 72.888C70.3054 73.3298 69.7069 73.7716 69.1399 74.2134C62.9659 79.136 59.9419 81.5974 60.0679 81.5974C59.3749 81.5974 56.9494 79.2307 52.7914 74.4974L63.2809 65.8827C64.2889 65.2516 64.7929 64.4942 64.7929 63.6107C64.7929 62.8534 63.2809 62.4747 60.2569 62.4747C56.6029 62.4747 50.5864 63.3267 42.2074 65.0307L33.4189 66.7347C30.5839 67.3027 28.5994 67.5867 27.4654 67.5867C23.9374 67.5867 21.2599 66.0089 19.4329 62.8534C18.8659 61.8436 18.5824 60.4551 18.5824 58.688C18.5824 58.12 19.2124 56.5107 20.4724 53.86C22.2364 50.1365 24.5044 46.7916 27.2764 43.8254C31.0564 39.66 35.4979 36.5045 40.6009 34.3587C40.9789 34.2325 41.8924 34.1694 43.3414 34.1694C45.4834 34.1694 47.6884 34.4849 49.9564 35.116C51.9094 35.6209 53.6734 36.3467 55.2484 37.2934C53.4844 38.1138 50.9014 39.4391 47.4994 41.2694L46.7434 41.648C50.8384 39.5022 54.0829 38.4294 56.4769 38.4294C60.1309 38.4294 64.6984 39.0605 70.1794 40.3227L69.9904 40.512ZM62.9974 66.4507C63.0604 66.4507 62.2099 66.3876 60.4459 66.2614C58.7449 66.072 57.2329 65.9774 55.9099 65.9774C50.8069 65.9774 45.0109 66.6085 38.5219 67.8707C32.0959 69.1329 27.7174 69.764 25.3864 69.764C22.0474 69.764 19.3384 68.8489 17.2594 67.0187C15.1174 65.1254 14.0464 62.5694 14.0464 59.3507C14.0464 54.8067 15.8104 50.7991 19.3384 47.328C20.0944 47.5174 21.6064 47.896 23.8744 48.464C22.1734 50.4205 21.0079 52.0929 20.3779 53.4814C19.4329 55.6271 18.9604 57.4889 18.9604 59.0667C18.9604 61.1494 19.7479 63.0111 21.3229 64.652C22.9609 66.2298 24.9454 67.0187 27.2764 67.0187C28.6624 67.0187 33.7024 66.1667 42.3964 64.4627C51.0904 62.7587 56.8234 61.9067 59.5954 61.9067C60.2884 61.9067 61.2964 62.0329 62.6194 62.2854C64.3834 62.7271 65.2654 63.2005 65.2654 63.7054C65.2654 64.084 65.0449 64.5889 64.6039 65.22C64.0999 66.0405 63.5644 66.4507 62.9974 66.4507ZM20.9449 94.0934C20.8189 94.0303 20.7559 93.9356 20.7559 93.8094C20.7559 91.2849 21.3229 87.94 22.4569 83.7747C23.5909 79.5462 24.7249 76.7694 25.8589 75.444C26.4259 74.6867 28.3474 73.8347 31.6234 72.888C34.9624 71.8782 37.5769 71.3734 39.4669 71.3734H40.6954C37.7974 76.8009 36.3484 81.4396 36.3484 85.2894C36.3484 87.1196 36.9784 88.0347 38.2384 88.0347C39.0574 88.0347 40.3804 87.0565 42.2074 85.1C43.5304 83.7116 44.8219 82.3231 46.0819 80.9347C46.2709 80.8085 48.5074 78.7258 52.7914 74.6867L59.9734 81.7867C51.4684 90.4329 45.5779 97.3436 42.3019 102.519C46.7119 96.46 52.3189 90.78 59.1229 85.4787C60.8239 84.1534 63.0604 82.6387 65.8324 80.9347C70.3684 78.0947 72.6679 76.6431 72.7309 76.58C74.9359 75.1285 76.0384 73.9294 76.0384 72.9827C76.0384 72.2254 75.2194 71.4365 73.5814 70.616L82.1809 65.4094C84.9529 66.6085 89.0479 69.3854 94.4659 73.74C82.6849 77.2742 71.8174 82.5756 61.8634 89.644C55.0594 94.4405 48.7594 100.026 42.9634 106.4C36.7264 113.216 32.3479 119.622 29.8279 125.617C27.3079 122.336 25.1344 118.107 23.3074 112.932C21.5434 107.82 20.6614 103.276 20.6614 99.3V95.608H21.1339C21.1339 95.608 21.0079 95.6396 20.7559 95.7027V95.608C20.8189 94.9769 20.8504 94.472 20.8504 94.0934H20.9449Z" stroke="white" stroke-width="28" stroke-linejoin="round" mask="url(#path-1-outside-1_247_3558)"/>
<path d="M101.099 103.308H109.415V95.0716H101.099V103.308ZM95.7126 114.1C94.3896 114.1 93.0666 113.626 91.8381 112.585C90.8931 111.449 90.4206 110.124 90.4206 108.704V89.5809C90.4206 88.3502 90.9876 86.9302 92.3106 85.3209C93.0666 84.5636 94.2006 84.1849 95.7126 84.1849H114.896C116.314 84.1849 117.542 84.7529 118.582 85.7942C119.621 86.9302 120.188 88.1609 120.188 89.5809V108.704C120.188 110.124 119.81 111.26 119.149 112.112C117.448 113.437 116.03 114.1 114.896 114.1H95.7126ZM76.6236 133.222C75.1116 133.222 73.8831 132.749 72.8436 131.613C71.7096 130.572 71.2371 129.341 71.2371 127.826V70.5529C71.2371 69.0382 71.7096 67.8076 72.8436 66.6716C73.8831 65.6302 75.1116 65.0622 76.6236 65.0622H126.709C128.221 65.2516 129.449 66.1036 130.3 67.4289L138.332 80.0196C138.899 80.8716 139.277 81.8182 139.277 82.8596V89.7702C139.277 91.2849 138.71 92.5156 137.671 93.5569C136.631 94.6929 135.403 95.1662 133.891 95.1662C132.473 95.1662 131.15 94.6929 130.016 93.5569C128.977 92.5156 128.504 91.2849 128.504 89.7702V84.8476L122.645 75.9489H82.1046V122.336H128.504V108.798C128.504 107.284 128.977 106.053 130.016 104.917C131.245 103.876 132.568 103.308 133.891 103.308C135.403 103.308 136.631 103.876 137.671 104.917C138.71 106.053 139.277 107.284 139.277 108.798V127.826C139.277 129.341 138.71 130.572 137.671 131.613C136.631 132.749 135.403 133.222 133.985 133.222H76.6236Z" stroke="white" stroke-width="28" stroke-linejoin="round" mask="url(#path-1-outside-1_247_3558)"/>
<mask id="path-2-outside-2_247_3558" maskUnits="userSpaceOnUse" x="6.04663" y="6.88892" width="142" height="135" fill="black">
<rect fill="white" x="6.04663" y="6.88892" width="142" height="135"/>
<path d="M113.762 14.8889L116.733 33.3909L132.711 35.7695L117.127 38.0992L113.762 56.6501L110.701 38.6351L94.8126 35.7695L110.396 33.4399L113.762 14.8889Z"/>
<path d="M69.9906 40.512L70.1796 40.7014C69.9276 40.5751 69.7701 40.512 69.7071 40.512C69.7071 40.512 69.3291 40.0071 68.5731 38.9974C66.9351 36.8516 64.3206 34.5165 60.7296 31.992C57.1386 29.4045 52.9491 27.2587 48.1611 25.5547L54.4926 25.0814C54.8076 25.0814 55.5951 25.0814 56.8551 25.0814C61.7061 25.0814 65.3601 25.4285 67.8171 26.1227C69.2661 26.5645 71.8491 28.7418 75.5661 32.6547C80.4171 37.7667 84.6696 44.0147 88.3236 51.3987C84.6696 53.6076 82.4016 54.712 81.5196 54.712C81.2046 54.712 80.1336 54.3334 78.3066 53.576C68.4156 49.4738 59.8161 47.5174 52.5081 47.7067L49.2006 47.8014C45.6096 47.8645 42.2076 48.5587 38.9946 49.884C34.9626 51.4618 32.6631 53.3236 32.0961 55.4694C32.0331 55.6587 32.0016 55.8796 32.0016 56.132C32.0016 57.8991 33.6396 58.7827 36.9156 58.7827C37.5456 58.7827 42.3966 57.8676 51.4686 56.0374C56.0046 55.1538 59.7216 54.6805 62.6196 54.6174L67.4391 54.5227C74.6211 54.3965 82.4016 56.7631 90.7806 61.6227C86.3076 63.5791 79.6926 67.3342 70.9356 72.888C70.3056 73.3298 69.7071 73.7716 69.1401 74.2134C62.9661 79.136 59.9421 81.5974 60.0681 81.5974C59.3751 81.5974 56.9496 79.2307 52.7916 74.4974L63.2811 65.8827C64.2891 65.2516 64.7931 64.4942 64.7931 63.6107C64.7931 62.8534 63.2811 62.4747 60.2571 62.4747C56.6031 62.4747 50.5866 63.3267 42.2076 65.0307L33.4191 66.7347C30.5841 67.3027 28.5996 67.5867 27.4656 67.5867C23.9376 67.5867 21.2601 66.0089 19.4331 62.8534C18.8661 61.8436 18.5826 60.4551 18.5826 58.688C18.5826 58.12 19.2126 56.5107 20.4726 53.86C22.2366 50.1365 24.5046 46.7916 27.2766 43.8254C31.0566 39.66 35.4981 36.5045 40.6011 34.3587C40.9791 34.2325 41.8926 34.1694 43.3416 34.1694C45.4836 34.1694 47.6886 34.4849 49.9566 35.116C51.9096 35.6209 53.6736 36.3467 55.2486 37.2934C53.4846 38.1138 50.9016 39.4391 47.4996 41.2694L46.7436 41.648C50.8386 39.5022 54.0831 38.4294 56.4771 38.4294C60.1311 38.4294 64.6986 39.0605 70.1796 40.3227L69.9906 40.512ZM62.9976 66.4507C63.0606 66.4507 62.2101 66.3876 60.4461 66.2614C58.7451 66.072 57.2331 65.9774 55.9101 65.9774C50.8071 65.9774 45.0111 66.6085 38.5221 67.8707C32.0961 69.1329 27.7176 69.764 25.3866 69.764C22.0476 69.764 19.3386 68.8489 17.2596 67.0187C15.1176 65.1254 14.0466 62.5694 14.0466 59.3507C14.0466 54.8067 15.8106 50.7991 19.3386 47.328C20.0946 47.5174 21.6066 47.896 23.8746 48.464C22.1736 50.4205 21.0081 52.0929 20.3781 53.4814C19.4331 55.6271 18.9606 57.4889 18.9606 59.0667C18.9606 61.1494 19.7481 63.0111 21.3231 64.652C22.9611 66.2298 24.9456 67.0187 27.2766 67.0187C28.6626 67.0187 33.7026 66.1667 42.3966 64.4627C51.0906 62.7587 56.8236 61.9067 59.5956 61.9067C60.2886 61.9067 61.2966 62.0329 62.6196 62.2854C64.3836 62.7271 65.2656 63.2005 65.2656 63.7054C65.2656 64.084 65.0451 64.5889 64.6041 65.22C64.1001 66.0405 63.5646 66.4507 62.9976 66.4507ZM20.9451 94.0934C20.8191 94.0303 20.7561 93.9356 20.7561 93.8094C20.7561 91.2849 21.3231 87.94 22.4571 83.7747C23.5911 79.5462 24.7251 76.7694 25.8591 75.444C26.4261 74.6867 28.3476 73.8347 31.6236 72.888C34.9626 71.8782 37.5771 71.3734 39.4671 71.3734H40.6956C37.7976 76.8009 36.3486 81.4396 36.3486 85.2894C36.3486 87.1196 36.9786 88.0347 38.2386 88.0347C39.0576 88.0347 40.3806 87.0565 42.2076 85.1C43.5306 83.7116 44.8221 82.3231 46.0821 80.9347C46.2711 80.8085 48.5076 78.7258 52.7916 74.6867L59.9736 81.7867C51.4686 90.4329 45.5781 97.3436 42.3021 102.519C46.7121 96.46 52.3191 90.78 59.1231 85.4787C60.8241 84.1534 63.0606 82.6387 65.8326 80.9347C70.3686 78.0947 72.6681 76.6431 72.7311 76.58C74.9361 75.1285 76.0386 73.9294 76.0386 72.9827C76.0386 72.2254 75.2196 71.4365 73.5816 70.616L82.1811 65.4094C84.9531 66.6085 89.0481 69.3854 94.4661 73.74C82.6851 77.2742 71.8176 82.5756 61.8636 89.644C55.0596 94.4405 48.7596 100.026 42.9636 106.4C36.7266 113.216 32.3481 119.622 29.8281 125.617C27.3081 122.336 25.1346 118.107 23.3076 112.932C21.5436 107.82 20.6616 103.276 20.6616 99.3V95.608H21.1341C21.1341 95.608 21.0081 95.6396 20.7561 95.7027V95.608C20.8191 94.9769 20.8506 94.472 20.8506 94.0934H20.9451Z"/>
<path d="M101.099 103.308H109.415V95.0716H101.099V103.308ZM95.7128 114.1C94.3898 114.1 93.0668 113.626 91.8383 112.585C90.8933 111.449 90.4208 110.124 90.4208 108.704V89.5809C90.4208 88.3502 90.9878 86.9302 92.3108 85.3209C93.0668 84.5636 94.2008 84.1849 95.7128 84.1849H114.896C116.314 84.1849 117.542 84.7529 118.582 85.7942C119.621 86.9302 120.188 88.1609 120.188 89.5809V108.704C120.188 110.124 119.81 111.26 119.149 112.112C117.448 113.437 116.03 114.1 114.896 114.1H95.7128ZM76.6238 133.222C75.1118 133.222 73.8833 132.749 72.8438 131.613C71.7098 130.572 71.2373 129.341 71.2373 127.826V70.5529C71.2373 69.0382 71.7098 67.8076 72.8438 66.6716C73.8833 65.6302 75.1118 65.0622 76.6238 65.0622H126.709C128.221 65.2516 129.449 66.1036 130.3 67.4289L138.332 80.0196C138.899 80.8716 139.277 81.8182 139.277 82.8596V89.7702C139.277 91.2849 138.71 92.5156 137.671 93.5569C136.631 94.6929 135.403 95.1662 133.891 95.1662C132.473 95.1662 131.15 94.6929 130.016 93.5569C128.977 92.5156 128.504 91.2849 128.504 89.7702V84.8476L122.645 75.9489H82.1048V122.336H128.504V108.798C128.504 107.284 128.977 106.053 130.016 104.917C131.245 103.876 132.568 103.308 133.891 103.308C135.403 103.308 136.631 103.876 137.671 104.917C138.71 106.053 139.277 107.284 139.277 108.798V127.826C139.277 129.341 138.71 130.572 137.671 131.613C136.631 132.749 135.403 133.222 133.985 133.222H76.6238Z"/>
</mask>
<path d="M113.762 14.8889L116.733 33.3909L132.711 35.7695L117.127 38.0992L113.762 56.6501L110.701 38.6351L94.8126 35.7695L110.396 33.4399L113.762 14.8889Z" fill="white"/>
<path d="M69.9906 40.512L70.1796 40.7014C69.9276 40.5751 69.7701 40.512 69.7071 40.512C69.7071 40.512 69.3291 40.0071 68.5731 38.9974C66.9351 36.8516 64.3206 34.5165 60.7296 31.992C57.1386 29.4045 52.9491 27.2587 48.1611 25.5547L54.4926 25.0814C54.8076 25.0814 55.5951 25.0814 56.8551 25.0814C61.7061 25.0814 65.3601 25.4285 67.8171 26.1227C69.2661 26.5645 71.8491 28.7418 75.5661 32.6547C80.4171 37.7667 84.6696 44.0147 88.3236 51.3987C84.6696 53.6076 82.4016 54.712 81.5196 54.712C81.2046 54.712 80.1336 54.3334 78.3066 53.576C68.4156 49.4738 59.8161 47.5174 52.5081 47.7067L49.2006 47.8014C45.6096 47.8645 42.2076 48.5587 38.9946 49.884C34.9626 51.4618 32.6631 53.3236 32.0961 55.4694C32.0331 55.6587 32.0016 55.8796 32.0016 56.132C32.0016 57.8991 33.6396 58.7827 36.9156 58.7827C37.5456 58.7827 42.3966 57.8676 51.4686 56.0374C56.0046 55.1538 59.7216 54.6805 62.6196 54.6174L67.4391 54.5227C74.6211 54.3965 82.4016 56.7631 90.7806 61.6227C86.3076 63.5791 79.6926 67.3342 70.9356 72.888C70.3056 73.3298 69.7071 73.7716 69.1401 74.2134C62.9661 79.136 59.9421 81.5974 60.0681 81.5974C59.3751 81.5974 56.9496 79.2307 52.7916 74.4974L63.2811 65.8827C64.2891 65.2516 64.7931 64.4942 64.7931 63.6107C64.7931 62.8534 63.2811 62.4747 60.2571 62.4747C56.6031 62.4747 50.5866 63.3267 42.2076 65.0307L33.4191 66.7347C30.5841 67.3027 28.5996 67.5867 27.4656 67.5867C23.9376 67.5867 21.2601 66.0089 19.4331 62.8534C18.8661 61.8436 18.5826 60.4551 18.5826 58.688C18.5826 58.12 19.2126 56.5107 20.4726 53.86C22.2366 50.1365 24.5046 46.7916 27.2766 43.8254C31.0566 39.66 35.4981 36.5045 40.6011 34.3587C40.9791 34.2325 41.8926 34.1694 43.3416 34.1694C45.4836 34.1694 47.6886 34.4849 49.9566 35.116C51.9096 35.6209 53.6736 36.3467 55.2486 37.2934C53.4846 38.1138 50.9016 39.4391 47.4996 41.2694L46.7436 41.648C50.8386 39.5022 54.0831 38.4294 56.4771 38.4294C60.1311 38.4294 64.6986 39.0605 70.1796 40.3227L69.9906 40.512ZM62.9976 66.4507C63.0606 66.4507 62.2101 66.3876 60.4461 66.2614C58.7451 66.072 57.2331 65.9774 55.9101 65.9774C50.8071 65.9774 45.0111 66.6085 38.5221 67.8707C32.0961 69.1329 27.7176 69.764 25.3866 69.764C22.0476 69.764 19.3386 68.8489 17.2596 67.0187C15.1176 65.1254 14.0466 62.5694 14.0466 59.3507C14.0466 54.8067 15.8106 50.7991 19.3386 47.328C20.0946 47.5174 21.6066 47.896 23.8746 48.464C22.1736 50.4205 21.0081 52.0929 20.3781 53.4814C19.4331 55.6271 18.9606 57.4889 18.9606 59.0667C18.9606 61.1494 19.7481 63.0111 21.3231 64.652C22.9611 66.2298 24.9456 67.0187 27.2766 67.0187C28.6626 67.0187 33.7026 66.1667 42.3966 64.4627C51.0906 62.7587 56.8236 61.9067 59.5956 61.9067C60.2886 61.9067 61.2966 62.0329 62.6196 62.2854C64.3836 62.7271 65.2656 63.2005 65.2656 63.7054C65.2656 64.084 65.0451 64.5889 64.6041 65.22C64.1001 66.0405 63.5646 66.4507 62.9976 66.4507ZM20.9451 94.0934C20.8191 94.0303 20.7561 93.9356 20.7561 93.8094C20.7561 91.2849 21.3231 87.94 22.4571 83.7747C23.5911 79.5462 24.7251 76.7694 25.8591 75.444C26.4261 74.6867 28.3476 73.8347 31.6236 72.888C34.9626 71.8782 37.5771 71.3734 39.4671 71.3734H40.6956C37.7976 76.8009 36.3486 81.4396 36.3486 85.2894C36.3486 87.1196 36.9786 88.0347 38.2386 88.0347C39.0576 88.0347 40.3806 87.0565 42.2076 85.1C43.5306 83.7116 44.8221 82.3231 46.0821 80.9347C46.2711 80.8085 48.5076 78.7258 52.7916 74.6867L59.9736 81.7867C51.4686 90.4329 45.5781 97.3436 42.3021 102.519C46.7121 96.46 52.3191 90.78 59.1231 85.4787C60.8241 84.1534 63.0606 82.6387 65.8326 80.9347C70.3686 78.0947 72.6681 76.6431 72.7311 76.58C74.9361 75.1285 76.0386 73.9294 76.0386 72.9827C76.0386 72.2254 75.2196 71.4365 73.5816 70.616L82.1811 65.4094C84.9531 66.6085 89.0481 69.3854 94.4661 73.74C82.6851 77.2742 71.8176 82.5756 61.8636 89.644C55.0596 94.4405 48.7596 100.026 42.9636 106.4C36.7266 113.216 32.3481 119.622 29.8281 125.617C27.3081 122.336 25.1346 118.107 23.3076 112.932C21.5436 107.82 20.6616 103.276 20.6616 99.3V95.608H21.1341C21.1341 95.608 21.0081 95.6396 20.7561 95.7027V95.608C20.8191 94.9769 20.8506 94.472 20.8506 94.0934H20.9451Z" fill="#9E9E9E"/>
<path d="M101.099 103.308H109.415V95.0716H101.099V103.308ZM95.7128 114.1C94.3898 114.1 93.0668 113.626 91.8383 112.585C90.8933 111.449 90.4208 110.124 90.4208 108.704V89.5809C90.4208 88.3502 90.9878 86.9302 92.3108 85.3209C93.0668 84.5636 94.2008 84.1849 95.7128 84.1849H114.896C116.314 84.1849 117.542 84.7529 118.582 85.7942C119.621 86.9302 120.188 88.1609 120.188 89.5809V108.704C120.188 110.124 119.81 111.26 119.149 112.112C117.448 113.437 116.03 114.1 114.896 114.1H95.7128ZM76.6238 133.222C75.1118 133.222 73.8833 132.749 72.8438 131.613C71.7098 130.572 71.2373 129.341 71.2373 127.826V70.5529C71.2373 69.0382 71.7098 67.8076 72.8438 66.6716C73.8833 65.6302 75.1118 65.0622 76.6238 65.0622H126.709C128.221 65.2516 129.449 66.1036 130.3 67.4289L138.332 80.0196C138.899 80.8716 139.277 81.8182 139.277 82.8596V89.7702C139.277 91.2849 138.71 92.5156 137.671 93.5569C136.631 94.6929 135.403 95.1662 133.891 95.1662C132.473 95.1662 131.15 94.6929 130.016 93.5569C128.977 92.5156 128.504 91.2849 128.504 89.7702V84.8476L122.645 75.9489H82.1048V122.336H128.504V108.798C128.504 107.284 128.977 106.053 130.016 104.917C131.245 103.876 132.568 103.308 133.891 103.308C135.403 103.308 136.631 103.876 137.671 104.917C138.71 106.053 139.277 107.284 139.277 108.798V127.826C139.277 129.341 138.71 130.572 137.671 131.613C136.631 132.749 135.403 133.222 133.985 133.222H76.6238Z" fill="white"/>
<path d="M113.762 14.8889L116.733 33.3909L132.711 35.7695L117.127 38.0992L113.762 56.6501L110.701 38.6351L94.8126 35.7695L110.396 33.4399L113.762 14.8889Z" stroke="#191919" stroke-width="16" stroke-linejoin="round" mask="url(#path-2-outside-2_247_3558)"/>
<path d="M69.9906 40.512L70.1796 40.7014C69.9276 40.5751 69.7701 40.512 69.7071 40.512C69.7071 40.512 69.3291 40.0071 68.5731 38.9974C66.9351 36.8516 64.3206 34.5165 60.7296 31.992C57.1386 29.4045 52.9491 27.2587 48.1611 25.5547L54.4926 25.0814C54.8076 25.0814 55.5951 25.0814 56.8551 25.0814C61.7061 25.0814 65.3601 25.4285 67.8171 26.1227C69.2661 26.5645 71.8491 28.7418 75.5661 32.6547C80.4171 37.7667 84.6696 44.0147 88.3236 51.3987C84.6696 53.6076 82.4016 54.712 81.5196 54.712C81.2046 54.712 80.1336 54.3334 78.3066 53.576C68.4156 49.4738 59.8161 47.5174 52.5081 47.7067L49.2006 47.8014C45.6096 47.8645 42.2076 48.5587 38.9946 49.884C34.9626 51.4618 32.6631 53.3236 32.0961 55.4694C32.0331 55.6587 32.0016 55.8796 32.0016 56.132C32.0016 57.8991 33.6396 58.7827 36.9156 58.7827C37.5456 58.7827 42.3966 57.8676 51.4686 56.0374C56.0046 55.1538 59.7216 54.6805 62.6196 54.6174L67.4391 54.5227C74.6211 54.3965 82.4016 56.7631 90.7806 61.6227C86.3076 63.5791 79.6926 67.3342 70.9356 72.888C70.3056 73.3298 69.7071 73.7716 69.1401 74.2134C62.9661 79.136 59.9421 81.5974 60.0681 81.5974C59.3751 81.5974 56.9496 79.2307 52.7916 74.4974L63.2811 65.8827C64.2891 65.2516 64.7931 64.4942 64.7931 63.6107C64.7931 62.8534 63.2811 62.4747 60.2571 62.4747C56.6031 62.4747 50.5866 63.3267 42.2076 65.0307L33.4191 66.7347C30.5841 67.3027 28.5996 67.5867 27.4656 67.5867C23.9376 67.5867 21.2601 66.0089 19.4331 62.8534C18.8661 61.8436 18.5826 60.4551 18.5826 58.688C18.5826 58.12 19.2126 56.5107 20.4726 53.86C22.2366 50.1365 24.5046 46.7916 27.2766 43.8254C31.0566 39.66 35.4981 36.5045 40.6011 34.3587C40.9791 34.2325 41.8926 34.1694 43.3416 34.1694C45.4836 34.1694 47.6886 34.4849 49.9566 35.116C51.9096 35.6209 53.6736 36.3467 55.2486 37.2934C53.4846 38.1138 50.9016 39.4391 47.4996 41.2694L46.7436 41.648C50.8386 39.5022 54.0831 38.4294 56.4771 38.4294C60.1311 38.4294 64.6986 39.0605 70.1796 40.3227L69.9906 40.512ZM62.9976 66.4507C63.0606 66.4507 62.2101 66.3876 60.4461 66.2614C58.7451 66.072 57.2331 65.9774 55.9101 65.9774C50.8071 65.9774 45.0111 66.6085 38.5221 67.8707C32.0961 69.1329 27.7176 69.764 25.3866 69.764C22.0476 69.764 19.3386 68.8489 17.2596 67.0187C15.1176 65.1254 14.0466 62.5694 14.0466 59.3507C14.0466 54.8067 15.8106 50.7991 19.3386 47.328C20.0946 47.5174 21.6066 47.896 23.8746 48.464C22.1736 50.4205 21.0081 52.0929 20.3781 53.4814C19.4331 55.6271 18.9606 57.4889 18.9606 59.0667C18.9606 61.1494 19.7481 63.0111 21.3231 64.652C22.9611 66.2298 24.9456 67.0187 27.2766 67.0187C28.6626 67.0187 33.7026 66.1667 42.3966 64.4627C51.0906 62.7587 56.8236 61.9067 59.5956 61.9067C60.2886 61.9067 61.2966 62.0329 62.6196 62.2854C64.3836 62.7271 65.2656 63.2005 65.2656 63.7054C65.2656 64.084 65.0451 64.5889 64.6041 65.22C64.1001 66.0405 63.5646 66.4507 62.9976 66.4507ZM20.9451 94.0934C20.8191 94.0303 20.7561 93.9356 20.7561 93.8094C20.7561 91.2849 21.3231 87.94 22.4571 83.7747C23.5911 79.5462 24.7251 76.7694 25.8591 75.444C26.4261 74.6867 28.3476 73.8347 31.6236 72.888C34.9626 71.8782 37.5771 71.3734 39.4671 71.3734H40.6956C37.7976 76.8009 36.3486 81.4396 36.3486 85.2894C36.3486 87.1196 36.9786 88.0347 38.2386 88.0347C39.0576 88.0347 40.3806 87.0565 42.2076 85.1C43.5306 83.7116 44.8221 82.3231 46.0821 80.9347C46.2711 80.8085 48.5076 78.7258 52.7916 74.6867L59.9736 81.7867C51.4686 90.4329 45.5781 97.3436 42.3021 102.519C46.7121 96.46 52.3191 90.78 59.1231 85.4787C60.8241 84.1534 63.0606 82.6387 65.8326 80.9347C70.3686 78.0947 72.6681 76.6431 72.7311 76.58C74.9361 75.1285 76.0386 73.9294 76.0386 72.9827C76.0386 72.2254 75.2196 71.4365 73.5816 70.616L82.1811 65.4094C84.9531 66.6085 89.0481 69.3854 94.4661 73.74C82.6851 77.2742 71.8176 82.5756 61.8636 89.644C55.0596 94.4405 48.7596 100.026 42.9636 106.4C36.7266 113.216 32.3481 119.622 29.8281 125.617C27.3081 122.336 25.1346 118.107 23.3076 112.932C21.5436 107.82 20.6616 103.276 20.6616 99.3V95.608H21.1341C21.1341 95.608 21.0081 95.6396 20.7561 95.7027V95.608C20.8191 94.9769 20.8506 94.472 20.8506 94.0934H20.9451Z" stroke="#191919" stroke-width="16" stroke-linejoin="round" mask="url(#path-2-outside-2_247_3558)"/>
<path d="M101.099 103.308H109.415V95.0716H101.099V103.308ZM95.7128 114.1C94.3898 114.1 93.0668 113.626 91.8383 112.585C90.8933 111.449 90.4208 110.124 90.4208 108.704V89.5809C90.4208 88.3502 90.9878 86.9302 92.3108 85.3209C93.0668 84.5636 94.2008 84.1849 95.7128 84.1849H114.896C116.314 84.1849 117.542 84.7529 118.582 85.7942C119.621 86.9302 120.188 88.1609 120.188 89.5809V108.704C120.188 110.124 119.81 111.26 119.149 112.112C117.448 113.437 116.03 114.1 114.896 114.1H95.7128ZM76.6238 133.222C75.1118 133.222 73.8833 132.749 72.8438 131.613C71.7098 130.572 71.2373 129.341 71.2373 127.826V70.5529C71.2373 69.0382 71.7098 67.8076 72.8438 66.6716C73.8833 65.6302 75.1118 65.0622 76.6238 65.0622H126.709C128.221 65.2516 129.449 66.1036 130.3 67.4289L138.332 80.0196C138.899 80.8716 139.277 81.8182 139.277 82.8596V89.7702C139.277 91.2849 138.71 92.5156 137.671 93.5569C136.631 94.6929 135.403 95.1662 133.891 95.1662C132.473 95.1662 131.15 94.6929 130.016 93.5569C128.977 92.5156 128.504 91.2849 128.504 89.7702V84.8476L122.645 75.9489H82.1048V122.336H128.504V108.798C128.504 107.284 128.977 106.053 130.016 104.917C131.245 103.876 132.568 103.308 133.891 103.308C135.403 103.308 136.631 103.876 137.671 104.917C138.71 106.053 139.277 107.284 139.277 108.798V127.826C139.277 129.341 138.71 130.572 137.671 131.613C136.631 132.749 135.403 133.222 133.985 133.222H76.6238Z" stroke="#191919" stroke-width="16" stroke-linejoin="round" mask="url(#path-2-outside-2_247_3558)"/>
<path d="M113.761 14.8889L116.732 33.3909L132.71 35.7695L117.127 38.0992L113.761 56.6501L110.7 38.6351L94.8124 35.7695L110.396 33.4399L113.761 14.8889Z" fill="white"/>
<path d="M69.9904 40.512L70.1794 40.7014C69.9274 40.5751 69.7699 40.512 69.7069 40.512C69.7069 40.512 69.3289 40.0071 68.5729 38.9974C66.9349 36.8516 64.3204 34.5165 60.7294 31.992C57.1384 29.4045 52.9489 27.2587 48.1609 25.5547L54.4924 25.0814C54.8074 25.0814 55.5949 25.0814 56.8549 25.0814C61.7059 25.0814 65.3599 25.4285 67.8169 26.1227C69.2659 26.5645 71.8489 28.7418 75.5659 32.6547C80.4169 37.7667 84.6694 44.0147 88.3234 51.3987C84.6694 53.6076 82.4014 54.712 81.5194 54.712C81.2044 54.712 80.1334 54.3334 78.3064 53.576C68.4154 49.4738 59.8159 47.5174 52.5079 47.7067L49.2004 47.8014C45.6094 47.8645 42.2074 48.5587 38.9944 49.884C34.9624 51.4618 32.6629 53.3236 32.0959 55.4694C32.0329 55.6587 32.0014 55.8796 32.0014 56.132C32.0014 57.8991 33.6394 58.7827 36.9154 58.7827C37.5454 58.7827 42.3964 57.8676 51.4684 56.0374C56.0044 55.1538 59.7214 54.6805 62.6194 54.6174L67.4389 54.5227C74.6209 54.3965 82.4014 56.7631 90.7804 61.6227C86.3074 63.5791 79.6924 67.3342 70.9354 72.888C70.3054 73.3298 69.7069 73.7716 69.1399 74.2134C62.9659 79.136 59.9419 81.5974 60.0679 81.5974C59.3749 81.5974 56.9494 79.2307 52.7914 74.4974L63.2809 65.8827C64.2889 65.2516 64.7929 64.4942 64.7929 63.6107C64.7929 62.8534 63.2809 62.4747 60.2569 62.4747C56.6029 62.4747 50.5864 63.3267 42.2074 65.0307L33.4189 66.7347C30.5839 67.3027 28.5994 67.5867 27.4654 67.5867C23.9374 67.5867 21.2599 66.0089 19.4329 62.8534C18.8659 61.8436 18.5824 60.4551 18.5824 58.688C18.5824 58.12 19.2124 56.5107 20.4724 53.86C22.2364 50.1365 24.5044 46.7916 27.2764 43.8254C31.0564 39.66 35.4979 36.5045 40.6009 34.3587C40.9789 34.2325 41.8924 34.1694 43.3414 34.1694C45.4834 34.1694 47.6884 34.4849 49.9564 35.116C51.9094 35.6209 53.6734 36.3467 55.2484 37.2934C53.4844 38.1138 50.9014 39.4391 47.4994 41.2694L46.7434 41.648C50.8384 39.5022 54.0829 38.4294 56.4769 38.4294C60.1309 38.4294 64.6984 39.0605 70.1794 40.3227L69.9904 40.512ZM62.9974 66.4507C63.0604 66.4507 62.2099 66.3876 60.4459 66.2614C58.7449 66.072 57.2329 65.9774 55.9099 65.9774C50.8069 65.9774 45.0109 66.6085 38.5219 67.8707C32.0959 69.1329 27.7174 69.764 25.3864 69.764C22.0474 69.764 19.3384 68.8489 17.2594 67.0187C15.1174 65.1254 14.0464 62.5694 14.0464 59.3507C14.0464 54.8067 15.8104 50.7991 19.3384 47.328C20.0944 47.5174 21.6064 47.896 23.8744 48.464C22.1734 50.4205 21.0079 52.0929 20.3779 53.4814C19.4329 55.6271 18.9604 57.4889 18.9604 59.0667C18.9604 61.1494 19.7479 63.0111 21.3229 64.652C22.9609 66.2298 24.9454 67.0187 27.2764 67.0187C28.6624 67.0187 33.7024 66.1667 42.3964 64.4627C51.0904 62.7587 56.8234 61.9067 59.5954 61.9067C60.2884 61.9067 61.2964 62.0329 62.6194 62.2854C64.3834 62.7271 65.2654 63.2005 65.2654 63.7054C65.2654 64.084 65.0449 64.5889 64.6039 65.22C64.0999 66.0405 63.5644 66.4507 62.9974 66.4507ZM20.9449 94.0934C20.8189 94.0302 20.7559 93.9356 20.7559 93.8094C20.7559 91.2849 21.3229 87.94 22.4569 83.7747C23.5909 79.5462 24.7249 76.7694 25.8589 75.444C26.4259 74.6867 28.3474 73.8347 31.6234 72.888C34.9624 71.8782 37.5769 71.3734 39.4669 71.3734H40.6954C37.7974 76.8009 36.3484 81.4396 36.3484 85.2894C36.3484 87.1196 36.9784 88.0347 38.2384 88.0347C39.0574 88.0347 40.3804 87.0565 42.2074 85.1C43.5304 83.7116 44.8219 82.3231 46.0819 80.9347C46.2709 80.8085 48.5074 78.7258 52.7914 74.6867L59.9734 81.7867C51.4684 90.4329 45.5779 97.3436 42.3019 102.519C46.7119 96.46 52.3189 90.78 59.1229 85.4787C60.8239 84.1534 63.0604 82.6387 65.8324 80.9347C70.3684 78.0947 72.6679 76.6431 72.7309 76.58C74.9359 75.1285 76.0384 73.9294 76.0384 72.9827C76.0384 72.2254 75.2194 71.4365 73.5814 70.616L82.1809 65.4094C84.9529 66.6085 89.0479 69.3854 94.4659 73.74C82.6849 77.2743 71.8174 82.5756 61.8634 89.644C55.0594 94.4405 48.7594 100.026 42.9634 106.4C36.7264 113.216 32.3479 119.622 29.8279 125.617C27.3079 122.336 25.1344 118.107 23.3074 112.932C21.5434 107.82 20.6614 103.276 20.6614 99.3V95.608H21.1339C21.1339 95.608 21.0079 95.6396 20.7559 95.7027V95.608C20.8189 94.9769 20.8504 94.472 20.8504 94.0934H20.9449Z" fill="#9E9E9E"/>
<path d="M101.099 103.308H109.415V95.0716H101.099V103.308ZM95.7126 114.1C94.3896 114.1 93.0666 113.626 91.8381 112.585C90.8931 111.449 90.4206 110.124 90.4206 108.704V89.5809C90.4206 88.3502 90.9876 86.9302 92.3106 85.3209C93.0666 84.5636 94.2006 84.1849 95.7126 84.1849H114.896C116.314 84.1849 117.542 84.7529 118.582 85.7942C119.621 86.9302 120.188 88.1609 120.188 89.5809V108.704C120.188 110.124 119.81 111.26 119.149 112.112C117.448 113.437 116.03 114.1 114.896 114.1H95.7126ZM76.6236 133.222C75.1116 133.222 73.8831 132.749 72.8436 131.613C71.7096 130.572 71.2371 129.341 71.2371 127.826V70.5529C71.2371 69.0382 71.7096 67.8076 72.8436 66.6716C73.8831 65.6302 75.1116 65.0622 76.6236 65.0622H126.709C128.221 65.2516 129.449 66.1036 130.3 67.4289L138.332 80.0196C138.899 80.8716 139.277 81.8182 139.277 82.8596V89.7702C139.277 91.2849 138.71 92.5156 137.671 93.5569C136.631 94.6929 135.403 95.1662 133.891 95.1662C132.473 95.1662 131.15 94.6929 130.016 93.5569C128.977 92.5156 128.504 91.2849 128.504 89.7702V84.8476L122.645 75.9489H82.1046V122.336H128.504V108.798C128.504 107.284 128.977 106.053 130.016 104.917C131.245 103.876 132.568 103.308 133.891 103.308C135.403 103.308 136.631 103.876 137.671 104.917C138.71 106.053 139.277 107.284 139.277 108.798V127.826C139.277 129.341 138.71 130.572 137.671 131.613C136.631 132.749 135.403 133.222 133.985 133.222H76.6236Z" fill="white"/>
</svg>
